<svg id="Ebene_1" data-name="Ebene 1" xmlns="http://www.w3.org/2000/svg" viewBox="0 0 134.45 134.45"><defs><style>.cls-1{fill:#ac0a30;}.cls-2{fill:#fff;}</style></defs><rect class="cls-1" width="134.45" height="134.45"/><g id="Audi_Logo_White" data-name="Audi Logo White"><path class="cls-2" d="M104,82.3a15,15,0,0,1-9.18-3.12,19.46,19.46,0,0,0,0-23.92,15.08,15.08,0,1,1,9.18,27M70.32,79.18a19.46,19.46,0,0,0,0-23.92,15.09,15.09,0,0,1,18.35,0,19.46,19.46,0,0,0,0,23.92,15.05,15.05,0,0,1-18.35,0m-24.54,0a19.49,19.49,0,0,0,0-23.92,15.09,15.09,0,0,1,18.35,0,19.46,19.46,0,0,0,0,23.92,15.05,15.05,0,0,1-18.35,0m-30.45-12a15.08,15.08,0,0,1,24.25-12,19.46,19.46,0,0,0,0,23.92,15.07,15.07,0,0,1-24.25-12M42.68,76a15,15,0,0,1,0-17.51,15,15,0,0,1,0,17.51m24.54,0a15.09,15.09,0,0,1,0-17.51,15,15,0,0,1,0,17.51m24.55,0a15,15,0,0,1,0-17.51,15.09,15.09,0,0,1,0,17.51M104,47.75A19.4,19.4,0,0,0,91.77,52.1a19.49,19.49,0,0,0-24.55,0,19.48,19.48,0,0,0-24.54,0,19.48,19.48,0,1,0,0,30.25,19.48,19.48,0,0,0,24.54,0,19.49,19.49,0,0,0,24.55,0A19.48,19.48,0,1,0,104,47.75"/></g></svg>