<svg id="fc038949-f395-4cb2-bd11-e11eefb93924" data-name="Ebene 1" xmlns="http://www.w3.org/2000/svg" viewBox="0 0 134.45 134.45">
  <defs>
    <style>
      .a4d2a566-54b0-4052-92fb-d5f7d54ec1dd {
        fill: #535353;
      }

      .ee011d31-6322-4f83-8371-60f4a06c8dc1 {
        fill: #fff;
      }

      .ba98b19e-aaa4-488b-8741-2e7144788cfc, .ee011d31-6322-4f83-8371-60f4a06c8dc1 {
        fill-rule: evenodd;
      }

      .ba98b19e-aaa4-488b-8741-2e7144788cfc {
        fill: #1d1d1b;
      }
    </style>
  </defs>
  <rect class="a4d2a566-54b0-4052-92fb-d5f7d54ec1dd" width="134.45" height="134.45"/>
  <g>
    <path class="ee011d31-6322-4f83-8371-60f4a06c8dc1" d="M28.7776,85.3711c.9451.0594,1.3769.5394,1.3769,1.2476a1.1732,1.1732,0,0,1-1.2238,1.2457c-.89.0468-2.9638.0528-3.8911,0q-.0516-1.2315,0-2.4933c1.0474-.0356,2.86-.0541,3.738,0m.1655,4.3958c1.308.0389,1.9607.5921,1.9607,1.4461,0,.8889-.5795,1.36-1.91,1.4244-1.2267.0573-2.6189.0573-3.9436,0a27.705,27.705,0,0,1,0-2.87c1.2723-.0343,2.74-.0343,3.8925,0m-6.0518,4.7222q.1119-5.39,0-10.9064c1.8517.0488,3.97.0488,5.9166,0,2.2339,0,3.3956,1.3591,3.3956,2.7255a2.6955,2.6955,0,0,1-1.2046,2.3508,2.75,2.75,0,0,1,1.9745,2.75c0,2.0825-1.5164,3.08-3.408,3.08Z"/>
    <path class="ee011d31-6322-4f83-8371-60f4a06c8dc1" d="M84.1469,92.5859q-.0375.94,0,1.9032-4.5015-.0792-9.0018,0,.0935-5.4543-.0014-10.9064c.6941.0251,1.3855.0251,2.0779,0q-.0889,4.5016,0,9.0032,3.46.0663,6.9253,0"/>
    <path class="ee011d31-6322-4f83-8371-60f4a06c8dc1" d="M50.8085,83.5788q3.0632,3.653,6.336,7.3084.0786-3.6509-.0014-7.3012.917.0407,1.86,0-.0806,5.3889,0,10.9044-.7947-.0357-1.5867.0026-3.1915-3.8211-6.6561-7.73-.07,3.8648-.0013,7.7273-.8962-.0357-1.8586,0,.07-5.45,0-10.903.9541.0345,1.9082-.0086"/>
    <path class="ee011d31-6322-4f83-8371-60f4a06c8dc1" d="M45.5047,85.4858q-3.5515-.081-7.1832,0a18.8393,18.8393,0,0,0,0,2.467q2.43.07,4.9161,0c-.0248.6317-.0248,1.2667,0,1.9q-2.4276-.0742-4.9161,0a25.7732,25.7732,0,0,0,0,2.732q3.6529.0722,7.306,0-.0354.9525,0,1.9025-4.69-.0781-9.3812,0,.0847-5.4513,0-10.9044,4.6836.0773,9.2584,0c-.0262.6351-.0262,1.2681,0,1.9031"/>
    <path class="ee011d31-6322-4f83-8371-60f4a06c8dc1" d="M104.431,94.4844q.0767-2.3136,0-4.6872-2.4027-3.1039-5.0126-6.2112,1.2789.0387,2.5582,0,1.6449,2.1129,3.4907,4.223,1.8378-2.1108,3.491-4.223,1.2791.0387,2.5566,0-2.5974,3.1059-5.0126,6.2112-.0767,2.3433,0,4.6872-1.0352-.0346-2.0713,0"/>
    <path class="ee011d31-6322-4f83-8371-60f4a06c8dc1" d="M96.35,85.4858q-3.55-.081-7.1819,0a19.3774,19.3774,0,0,0,0,2.467q2.43.07,4.9164,0c-.0264.6317-.0264,1.2667,0,1.9q-2.4279-.0742-4.9164,0a25.88,25.88,0,0,0,0,2.732q3.653.0722,7.3062,0-.0377.9525,0,1.9025-4.69-.0781-9.3827,0,.085-5.4513,0-10.9044,4.6836.0773,9.2584,0c-.0247.6351-.0247,1.2681,0,1.9031"/>
    <path class="ee011d31-6322-4f83-8371-60f4a06c8dc1" d="M66.2,94.4871q.0786-4.4472,0-9.0013-1.94-.085-3.9241,0,.0351-.9416,0-1.9031,4.9609.0811,9.9247,0-.037.94,0,1.9031-1.962-.0751-3.9256,0-.0766,4.5017,0,9.0013-1.0242-.0366-2.075,0"/>
    <path class="ba98b19e-aaa4-488b-8741-2e7144788cfc" d="M12.5292,43.1221s.8113-.9506,1.0444-1.2155.4057-.4692.5617-.6236a.5859.5859,0,0,1,.4828-.1794c.1491.0151,1.7386.1863,2.1663.2346.4291.0455,2.3085.1323,3.055.1323.749,0,2.7181.0042,3.1334.0042s3.5433-.1766,4.2386-.229c.6969-.0525,4.6914-.1035,5.6571-.1187.9672-.0152,5.4405.156,6.5472.2179s4.1461.2182,5.159.1878,5.7979-.2346,6.7485-.2346,3.9434.1876,4.6127.2953a12.2374,12.2374,0,0,1,1.45.3587s1.2776-.5147,1.9331-.7313a25.7955,25.7955,0,0,1,7.7765-1.2638,25.0923,25.0923,0,0,1,4.723.4539,28.9057,28.9057,0,0,1,3.5072.9962c.5921.2346,1.8546.81,1.8546.81s.92-.28,1.6984-.4512a21.7344,21.7344,0,0,1,2.6644-.4042,19.928,19.928,0,0,1,2.0739-.0938c.8417.0152,2.8534.2179,3.4135.28a26.9554,26.9554,0,0,0,3.2563.2027c.92-.0095,3.8827-.1408,4.74-.1875s5.9991-.28,7.0588-.2953c1.061-.0167,5.7054.2649,6.6411.31.9354.0483,2.8976.1408,3.5059.1256s2.6506-.11,3.6786-.2181,3.2342-.2911,3.6081-.3132c.4138-.0221.5918-.0221.6624.0249s.7174.6691.9822.9657.53.6624.6308.78.1473.1642.117.2251a4.5507,4.5507,0,0,1-.2882.4759.6179.6179,0,0,1-.2182.1711c-.0855.0483-.9974.5063-1.2942.6319-.2951.1241-1.0748.4512-1.0748.4512s.2261.53.3106.7645a4.0422,4.0422,0,0,1,.211.8582,1.8674,1.8674,0,0,1-.0235.505c-.0385.0249-.4981.29-.6775.367s-.8569.3587-1.1534.4373c-.2954.076-.8486.2251-.8486.2251a5.8683,5.8683,0,0,1,.0234.6773,5.0856,5.0856,0,0,1-.0785.82,2.1654,2.1654,0,0,1-.3422.6774,1.6662,1.6662,0,0,1-.523.3574,6.4369,6.4369,0,0,1-1.0129.3048c-.2881.054-.6858.1174-.8569.1326s-.3132.0152-.3132.0152-.0152.5077-.0386.7326a5.2574,5.2574,0,0,1-.1543.7948,1.61,1.61,0,0,1-.3756.6154,1.0857,1.0857,0,0,1-.56.2883,9.4274,9.4274,0,0,1-.9987.1876c-.3492.0388-1.02.1159-1.246.1326-.2265.0152-.461.0234-.461.0234s-.1711.6306-.24.8264a4.7566,4.7566,0,0,1-.4293.8253,4.5,4.5,0,0,1-.5381.6235,1.7112,1.7112,0,0,1-.4428.2954,5.5849,5.5849,0,0,1-.8266.0551c-.2344,0-.9423,0-1.2941-.0234s-.7326-.062-.9727-.0856a2.5553,2.5553,0,0,1-.367-.062s-.0788.4829-.1022.6085a4.2978,4.2978,0,0,1-.2014.654,1.5671,1.5671,0,0,1-.3133.498.8.8,0,0,1-.4817.2649,4.4368,4.4368,0,0,1-.756.0856c-.1794.0083-1.3176.0386-1.6212.0386s-.8886-.0069-1.1-.0152-.5368,0-.5368,0-.0857.3588-.149.5617a5.0722,5.0722,0,0,1-.2717.6856,1.7967,1.7967,0,0,1-.3119.4595.6368.6368,0,0,1-.4527.25,6.5853,6.5853,0,0,1-.8873.047c-.3132-.0083-.9987-.047-1.3175-.0939s-.9743-.1724-1.1619-.2263a3.5127,3.5127,0,0,1-.3822-.1393,3.7425,3.7425,0,0,1-.21.5216,2.6924,2.6924,0,0,1-.4289.5918,1.2673,1.2673,0,0,1-.6473.3973,3.0766,3.0766,0,0,1-.8638-.0537c-.2579-.0386-.818-.1629-1.06-.2262s-.8514-.2415-.9892-.28a3.033,3.033,0,0,1-.3132-.11,3.8611,3.8611,0,0,1-.28.4759,3.2027,3.2027,0,0,1-.451.483,1.6654,1.6654,0,0,1-.5381.3049,2.566,2.566,0,0,1-.5935-.0386,6.1561,6.1561,0,0,1-.8553-.2194,4.9758,4.9758,0,0,1-.4995-.1877s-.2954.8583-.3739,1.0528-.46.9907-.6017,1.2556c-.1171.2249-.7491,1.2529-.9423,1.5343-.2331.3436-1.1672,1.52-1.3934,1.7455s-.5467.57-.7494.7795-1.06.974-1.519,1.3413a23.4378,23.4378,0,0,1-1.94,1.3716c-.6485.3969-1.824,1.028-2.3387,1.2621s-1.1065.4748-1.1065.4748-.2347.4445-.3574.726a7.8731,7.8731,0,0,1-.4072.7848.224.224,0,0,1-.2717.0633c-.1173-.0383-.6788-.2493-.8885-.3265-.21-.0791-.6776-.2736-.6776-.2736s-.3119.46-.4224.6311c-.1088.1721-.4125.6317-.4662.6851-.0551.0554-.1724.0336-.2413.0086s-.6776-.3574-.8032-.4293c-.124-.0686-.6469-.3739-.6469-.3739s-.2954.3587-.4514.57c-.1256.17-.5546.6628-.5932.701s-.1009.0317-.1932-.0066a4.2059,4.2059,0,0,1-.4761-.3369c-.2028-.1478-.5463-.4208-.6555-.4894a1.7765,1.7765,0,0,1-.21-.1642s-.389.3819-.53.5144-.4829.4675-.53.5144-.1324.1246-.1324.1246a.1618.1618,0,0,1-.1641.0079,7.3324,7.3324,0,0,1-.6623-.5849c-.1408-.1339-.5465-.5368-.5465-.5368s-.49.3574-.654.4748-.6.46-.6774.4979a.2012.2012,0,0,1-.25-.0607c-.0622-.087-.53-.6251-.6154-.7339s-.3822-.46-.3822-.46-.5768.312-.81.4293-.5851.3489-.6473.3739-.2027.0238-.25-.0554-.3492-.513-.4679-.6851c-.1324-.1952-.4056-.6159-.4056-.6159s-.53.1945-.7161.2736c-.1863.0772-.7478.2961-.8487.3186s-.25-.0027-.29-.0772c-.054-.1022-.4361-.8348-.5147-1.0129-.0774-.1807-.2015-.4458-.2015-.4458s-.6278-.2486-1.0361-.4359c-.4445-.203-1.395-.6693-1.7924-.8889-.3974-.2162-1.06-.6139-1.4571-.8882s-1.3095-.9423-1.6682-1.2542-1.5742-1.5192-1.8626-1.8463-.7479-.8816-1.1383-1.41a11.8678,11.8678,0,0,1-.9425-1.5358,15.2733,15.2733,0,0,1-.7326-1.5591c-.25-.6154-.46-1.1853-.5216-1.3937a3.01,3.01,0,0,1-.0787-.2979s-.7092.2346-1.2072.3518a5.8,5.8,0,0,1-1.5675.25c-.5049-.0318-.5988-.11-.7244-.2112a2.8128,2.8128,0,0,1-.4525-.5229,5.2379,5.2379,0,0,1-.334-.56s-.78.1945-1.0831.2649-1.021.2112-1.45.2649a6.2363,6.2363,0,0,1-1.1769.0787,1.1652,1.1652,0,0,1-.6473-.32,2.2536,2.2536,0,0,1-.4276-.4911,6.9245,6.9245,0,0,1-.3671-.6776,1.7882,1.7882,0,0,1-.0772-.25s-.8955.0152-1.13.0152-1.4652-.0068-1.715-.0152a10.7075,10.7075,0,0,1-1.1922-.109.95.95,0,0,1-.7009-.4456,2.5269,2.5269,0,0,1-.4278-.7768c-.102-.2732-.1806-.5782-.1806-.5782s-.7866-.0082-1.2075-.0537c-.4207-.0483-1.2941-.1477-1.7687-.2264a14.0109,14.0109,0,0,1-1.395-.2731c-.1946-.0691-.3035-.2346-.4747-.4209a5.7552,5.7552,0,0,1-.4995-.6692c-.1559-.2346-.4759-.7106-.5064-.78a1.4534,1.4534,0,0,0-.0772-.1477s-.8114-.0786-1.1687-.1254c-.36-.0455-.8816-.1326-1.1231-.1781a8.3464,8.3464,0,0,1-1.0128-.2346.7045.7045,0,0,1-.3823-.3739,7.4382,7.4382,0,0,1-.3117-1.17c-.1077-.4429-.1794-.8017-.1794-.8017s-.6541-.1711-1.177-.3117-.6692-.1878-1.0293-.2953a3.9479,3.9479,0,0,1-.9024-.3753c-.2028-.1324-.196-.3822-.2179-.5217-.0236-.1406-.0786-.7339-.0938-.905-.0167-.1712-.0085-.5451-.0085-.5451s-1.301-.6-1.6363-.7477c-.3353-.1491-1.13-.53-1.2943-.6072-.1627-.0787-.1393-.25-.1159-.3822s.1325-.6623.1878-.92c.0537-.2566.1393-.6773.1558-.7326a.8607.8607,0,0,0,.022-.1076s-1.2555-.6319-1.5659-.7961c-.3119-.1642-1.1923-.6072-1.31-.6789-.1172-.0691-.1627-.21-.2179-.4043s-.0787-.3036-.0787-.3036"/>
    <path class="ee011d31-6322-4f83-8371-60f4a06c8dc1" d="M53.9406,50.969c.1256-1.4391,1.9344-3.0494,1.6723-4.5133-.2069-1.159-1.6391-2.1413-3.0782-2.3664-.8279-.13-3.5489-.3325-4.1422-.3518-.7313-.0234-2.703-.062-3.32-.07-.6155-.0067-2.2449-.0165-2.7265-.0317a12.2914,12.2914,0,0,1-1.8558-.1559,15.8744,15.8744,0,0,1-2.1042-.53c-.7712-.2331-1.3853-.4209-1.9938-.5533a17.2545,17.2545,0,0,0-1.91-.3035c-.5314-.047-1.5744-.1243-2.3609-.1395s-2.7278,0-3.3529.0069c-.6222.0083-2.5553.0774-3.0618.0774s-1.0527-.007-1.2928.0082-.1876.1325-.2966.1477-.7009,0-1.0362,0-.5851-.0152-.7023-.0236c-.1174-.0069-.2884-.0069-.2884-.0069a.12.12,0,0,0,.0951.1395,4.1974,4.1974,0,0,0,.5134.0635c.1008.0082.8955.0621,1.1755.0773.2829.0151.7644.0151,1.0694.04.3035.0236.8485.0236,1.2072.03.3588.0084,1.8075,0,2.3374.0152s1.5289.0166,2.0187.0318,1.653.0621,2.565.1724a20.8157,20.8157,0,0,1,2.5705.4361c.8776.2084,1.9179.5367,2.4243.6927s1.2088.3436,1.5729.4207a3.3409,3.3409,0,0,1,.7879.1809c.0938.0758.0938.1627.04.28a2.7614,2.7614,0,0,0-.1408.2649c-.04.109-.0787.1945-.0787.1945h-.3271a.2653.2653,0,0,0,.07-.1325c.007-.07-.1861-.1876-.39-.2262-.2015-.04-1.1288-.1243-1.37-.156a16.3712,16.3712,0,0,0-1.6613-.11c-.4981.01-2.4463-.0152-2.9458,0-.4982.018-2.3208-.0221-2.7816-.007-.4595.0167-2.0642,0-2.5016-.0082s-1.45-.0069-1.8545-.0069-1.7771,0-2.26-.0083-2.1359-.0468-2.4547-.0385-1.2237-.0236-1.675-.03c-.4525-.0084-2.0035-.0552-2.4243-.0552a6.4381,6.4381,0,0,1-1.1148-.0773c-.1629-.0483-1.0515-.5078-1.4089-.6856-.36-.1809-1.0374-.53-1.2252-.6239-.1863-.0938-.3657-.2192-.4209-.2426-.0537-.0221-.3035.2192-.3724.3117-.07.0938-.196,0-.196,0s.8569-.9507,1.0294-1.1522a2.5632,2.5632,0,0,1,.4746-.5063,2.7807,2.7807,0,0,1,.694-.0084c.2264.0236,1.6667.1478,1.9483.1711.28.0236,1.504.0622,1.8309.0787.3284.0153,1.8779.0236,2.3926.0387s2.1277.0538,2.61.03,1.8227-.1478,2.2366-.1711,1.7152-.1173,2.3222-.1324c.6085-.0154,1.8545-.007,2.2518-.03s1.9719-.04,2.5182-.04,2.0807.0634,2.6023.0786,2.7595.1324,3.3431.1627c.5838.0318,3.4839.1326,4.1228.1477s1.59.0483,2.096.0152c.5077-.03,2.9376-.1393,3.6785-.1629s2.6809-.0537,3.4687-.03,2.68.2112,3.32.2885,1.27.2413,1.4488.2482a1.1387,1.1387,0,0,1,.5686.1174c.102.0938.1959.3035.39.4208s.4664.1628.56.2883.1022.3823.1559.4913a2.5971,2.5971,0,0,1,.3119.7092,1.6681,1.6681,0,0,1-.1546.9272,5.119,5.119,0,0,1-.7023.88c-.2883.2966-.7244.6167-1.1065.9438a9.1147,9.1147,0,0,0-1.3634,1.2928,2.71,2.71,0,0,0-.6167,1.2308c-.0689.4608-.03.734-.0538.8113a1.1253,1.1253,0,0,1-.2028.3891c-.1091.1173-.5837.6706-.7561.8969s-.4595.6471-.53.7561-.1324.2249-.1324.2249l-.1089-.1863a2.8376,2.8376,0,0,0,.2621-.3573c.09-.1063.0468-.4388.0951-.999"/>
    <path class="ee011d31-6322-4f83-8371-60f4a06c8dc1" d="M16.1152,45.5686l.0538-.2885s.7947-.0068,1.0362.0084,1.6917.062,2.1981.062,2.0807.047,2.4615.0318c.3821-.0167,2.51.03,2.9707.03s2.6879.0083,3.1473.0165,3.0078.0221,3.4053.0221,2.4946,0,2.9857.0082,2.5941-.0151,3.07-.0151c.4746,0,1.6916.0221,1.9565.0151a3.2339,3.2339,0,0,0,.53-.0468c.0537-.0151.2248-.0855.3269-.0387s.1477.1642.1945.225a.98.98,0,0,0,.1945.1725.906.906,0,0,1,.2346.1876.5983.5983,0,0,0,.1794.178c.1091.0869.1325.1255.0938.1725s-.2041.2566-.2732.3656-.0938.2264-.1323.2567a1.0438,1.0438,0,0,1-.2732.055s.1406-.1005.1172-.1945a.5725.5725,0,0,0-.5216-.3269,13.304,13.304,0,0,0-1.5439.0925c-.3739.04-2.8534.2565-3.2894.2966-.4361.0386-3.8717.2814-4.4568.3271s-3.3032.211-3.8261.25-2.5567.1406-3.1872.1779c-.6321.04-2.0891.102-2.6424.1256s-1.6515.0468-1.8544.0317a2.18,2.18,0,0,1-.6155-.1946c-.1406-.062-1.0209-.4594-1.2694-.57a3.3487,3.3487,0,0,1-.7642-.3892c-.0787-.1021-.0388-.265-.0388-.3891a.4886.4886,0,0,0-.1489-.4056c-.1408-.1173-.3188-.25-.3188-.25"/>
    <path class="ee011d31-6322-4f83-8371-60f4a06c8dc1" d="M18.85,48.9351v-.2179a4.7379,4.7379,0,0,0,.56-.0316c.1959-.0306.9672-.0306,1.48-.054.5147-.0248,2.5251-.11,3.1571-.1475.647-.04,3.5155-.196,4.0523-.2346s4.3242-.2968,4.8541-.3436,3.6565-.2952,4.1476-.334,2.1277-.211,2.7113-.258a3.4114,3.4114,0,0,0,.7644-.1323c.0938-.007.1629-.0622.2567.0468a2.7624,2.7624,0,0,0,.4055.4057c.1174.0786.4831.3117.4913.4276a.9183.9183,0,0,1-.1572.3741.9767.9767,0,0,0-.054.3282l-.3739.0691a1.0862,1.0862,0,0,0,.04-.1393.3255.3255,0,0,0-.2112-.2649,1.2187,1.2187,0,0,0-.67-.054c-.2566.054-1.4266.2567-1.9027.3341s-3.2329.538-3.9033.647-3.32.5147-3.9519.6c-.63.0855-3.0769.4055-3.9336.49-.8583.0869-1.8876.1877-2.463.22a11.3349,11.3349,0,0,1-1.5826.0386c-.4207-.0469-1.3481-.3354-1.7538-.4361a4.5866,4.5866,0,0,1-1.1147-.3821.6867.6867,0,0,1-.1863-.3339.9739.9739,0,0,0-.3284-.4375c-.0994-.0468-.3339-.1794-.3339-.1794"/>
    <path class="ee011d31-6322-4f83-8371-60f4a06c8dc1" d="M22.3021,51.6864a1.2847,1.2847,0,0,0,.3271,0,4.2507,4.2507,0,0,1,.523-.1089c.2014-.0083.81-.0317,1.1452-.0469s1.3162-.1091,1.66-.1407,1.9717-.1946,2.5016-.2649,3.4356-.4829,3.92-.552c.4831-.0717,2.9142-.4374,3.5765-.5548.6622-.1158,2.8836-.5062,3.4522-.6152s1.2543-.2181,1.5123-.2718c.2565-.0566.4291-.1725.57-.1326a3.7,3.7,0,0,1,.4664.232c.1794.0868.4525.1724.6.2261.1478.0553.2884.1326.3035.1876a.7347.7347,0,0,1-.0619.3809.9679.9679,0,0,0-.1244.32,2.023,2.023,0,0,0-.0316.2277l-.35.1241s.0539-.1573,0-.2344a.5441.5441,0,0,0-.35-.2029,2.14,2.14,0,0,0-.4209.0786c-.1627.0539-2.2682.6858-2.6036.78l-2.51.6926c-.31.087-2.2906.5837-2.8507.701s-2.634.538-3.1487.632-2.4629.3436-2.961.3739a6.0855,6.0855,0,0,1-.9824.0234c-.3974-.0234-1.1452-.1173-1.6212-.1863s-.9893-.1724-1.1688-.211-.35-.07-.429-.28-.069-.367-.2014-.5145a1.5165,1.5165,0,0,0-.4057-.3436c-.109-.047-.2814-.0457-.305-.1008a.5739.5739,0,0,1-.03-.2181"/>
    <path class="ee011d31-6322-4f83-8371-60f4a06c8dc1" d="M26.4953,54.53s1.4184-.1477,1.7373-.1945,2.5015-.3587,3.0245-.4677c.5214-.1091,2.7732-.5989,3.1789-.6927s2.8687-.7341,3.3584-.8665,2.1429-.5988,2.5872-.74,1.762-.5368,1.91-.6a1.02,1.02,0,0,1,.4443-.156,6.6389,6.6389,0,0,1,.7326.1946,3.1184,3.1184,0,0,1,.6321.1877.2525.2525,0,0,1,.0841.2414c-.0152.11-.0083.6858,0,.7479s.1573.1876.1573.1876l-.374.1476c-.0786.0318-.25.094-.25.094a.5484.5484,0,0,0,.0152-.2112.8839.8839,0,0,0-.2966-.1863.55.55,0,0,0-.2968.0539c-.1627.0551-.5836.2428-.7933.3366s-1.457.5836-1.831.7313-1.8862.7244-2.3705.8969-2.6794.9271-3.0852,1.0514-1.8475.53-2.19.6153a3.9261,3.9261,0,0,1-.7878.1724,17.43,17.43,0,0,1-1.8242-.1406c-.4512-.0621-1.7219-.25-1.8931-.305a.7744.7744,0,0,1-.3821-.24,1.1469,1.1469,0,0,0-.3574-.2968,5.5542,5.5542,0,0,0-.5147-.25c-.1393-.0538-.2028-.0772-.2966-.1159a2.0926,2.0926,0,0,1-.25-.0869.1966.1966,0,0,1-.0691-.109"/>
    <path class="ee011d31-6322-4f83-8371-60f4a06c8dc1" d="M32.3636,56.9848a5.4577,5.4577,0,0,0,.592-.1711c.131-.062.8719-.2869,1.1065-.35s1.0679-.2885,1.4169-.4058c.352-.1172,1.9871-.6774,2.3085-.7865.3187-.109,2.267-.8416,2.6491-.9893s2.5486-1.0361,2.859-1.1618a5.7931,5.7931,0,0,0,.7326-.3283,3.194,3.194,0,0,1,.6252-.28,3.1012,3.1012,0,0,1,.6373-.0841c.149.0069.2582-.0083.32.0607a.3626.3626,0,0,1,.0774.2813.7226.7226,0,0,0,.1642.5134,1.5371,1.5371,0,0,0,.5615.25,4.5042,4.5042,0,0,0,.5216.0938.5782.5782,0,0,0,.1324,0s-.4429.2636-.5533.32l-.5767.2871s-.0387-.1161-.0925-.1395a1.5119,1.5119,0,0,0-.4373-.0083,1.2,1.2,0,0,0-.4982.1712c-.1573.0938-1.6529.8885-1.9482,1.0445s-2.5886,1.3493-2.899,1.49c-.3117.1393-1.7841.8637-2.0269.9727a1.8221,1.8221,0,0,1-.6085.2264c-.2262.0233-.7395.0316-1.199.0385s-1.3632-.0152-1.6446-.03a3.65,3.65,0,0,1-.9038-.109c-.2181-.0869-.25-.2042-.3823-.3587a1.4041,1.4041,0,0,0-.5062-.3422.85.85,0,0,0-.3741-.0332c-.0317.0083-.0537-.1711-.0537-.1711"/>
    <path class="ee011d31-6322-4f83-8371-60f4a06c8dc1" d="M37.6937,58.8711s1.7841-.897,2.0558-1.0129c.2746-.1172,2.9391-1.48,3.2812-1.668s2.2918-1.2542,2.7127-1.4875,1.0045-.5464,1.0983-.6085a1.2494,1.2494,0,0,1,.2814-.1959,1.7024,1.7024,0,0,1,.1945-.0539s.1642.2194.2567.3353a.9682.9682,0,0,0,.5381.3588,1.8367,1.8367,0,0,0,.4982.0221c.1475-.0152.4056-.069.4056-.069s-.6458.6237-.763.716c-.1174.094-1.5356,1.2558-1.8157,1.5055s-1.3095,1.0513-1.5441,1.2389c-.2331.1863-.9811.7411-1.1438.8251a5.6647,5.6647,0,0,1-.8361.3132c-.2567.0691-1.4419.3189-1.87.4045s-1.348.2428-1.5261.25a.7519.7519,0,0,1-.5933-.1574c-.1558-.1627-.2413-.4043-.4443-.505a.8846.8846,0,0,0-.4829-.149c-.2814.0386-.3035-.062-.3035-.062"/>
    <path class="ee011d31-6322-4f83-8371-60f4a06c8dc1" d="M42.8747,59.9155s.9672-.7093,1.1784-.8817c.2084-.1711,1.0818-.8554,1.3164-1.043s1.261-1.0212,1.5742-1.2777c.3119-.2582,1.246-1.0528,1.4888-1.2709s.7231-.6856.7231-.6856a.5258.5258,0,0,0,.1172.2565,1.438,1.438,0,0,0,.4058.3037,1.7166,1.7166,0,0,0,.6871.0938c.2014-.007.396-.03.4746-.03a.1939.1939,0,0,1,.211.171c.0069.1325.0153.2263.0153.2885a.2661.2661,0,0,0,.03.1172l-1.4336,1.59c-.28.3117-1.0916,1.1838-1.3482,1.4487s-.912.9742-.9892,1.0376c-.0788.062-.3078.0124-.4457-.07-.1781-.1089-.3423-.0234-.56.0317-.2195.0539-.6085.1711-.8652.2333a8.5671,8.5671,0,0,1-1.0127.1945.6045.6045,0,0,1-.4443-.1241,2.3267,2.3267,0,0,0-.4443-.4057c-.1172-.0553-.258-.0939-.3187-.0553-.0635.04-.3132.1876-.36.0787"/>
    <path class="ee011d31-6322-4f83-8371-60f4a06c8dc1" d="M47.5908,60.2274s.9342-.9893,1.1453-1.2073,1.3411-1.442,1.5826-1.7069.654-.7575.7547-.8817c.1022-.1241.1794-.21.2263-.21a3.8132,3.8132,0,0,0,.5217-.0552,2.9447,2.9447,0,0,1,.607-.0855c.0786.0235.0786.0855.087.149.0082.0606.0152.7395.0234.9576a4.5839,4.5839,0,0,1-.0387.8665c-.0469.1711-.5615,1.1756-.6787,1.4488s-.4528.88-.4982.9975a.4368.4368,0,0,1-.1173.1863c-.0387.04-.1269-.0994-.25-.2484a.4376.4376,0,0,0-.53-.1324c-.178.0455-1.1838.3105-1.3632.349a2.1282,2.1282,0,0,1-.6554.0938.464.464,0,0,1-.3187-.2717.3684.3684,0,0,0-.2883-.2194.6885.6885,0,0,1-.21-.03"/>
    <path class="ee011d31-6322-4f83-8371-60f4a06c8dc1" d="M52.15,59.5264s.2331-.5533.2868-.6553c.0567-.1022.1326-.2649.1326-.2649a3.673,3.673,0,0,0,.1172.4207,4.1844,4.1844,0,0,1,.2346.4278c.0331.1144.2649.71.3035.803a.665.665,0,0,1,.0855.3284.345.345,0,0,0,.0167.2331c.03.0773.0593.1505.0069.1711-.0787.0318-.2415.1491-.2953.1712a.2344.2344,0,0,1-.2649-.0994c-.0483-.0718-.2428-.0869-.3975-.2111a.299.299,0,0,1-.1324-.3284,3.6438,3.6438,0,0,0,.0386-.6927c-.0386-.1007-.1323-.3035-.1323-.3035"/>
    <path class="ee011d31-6322-4f83-8371-60f4a06c8dc1" d="M47.4114,61.4277s.2885.3657.4761.3587a.8823.8823,0,0,0,.3256-.0786.573.573,0,0,1,.32.0069.3483.3483,0,0,1,.1642.2816,1.5343,1.5343,0,0,0,.1475.5532c.1022.2263.4995,1.0362.7328,1.4185s.9107,1.348,1.199,1.6985c.29.3518,1.2486,1.3964,1.4971,1.613.2483.2192,1.5122,1.2709,1.9648,1.5742A24.9405,24.9405,0,0,0,56.42,70.1785c.654.3284,1.4654.7089,1.6751.788s.3505.1.389.1622a.7137.7137,0,0,0,.109.126l-.24.397-.2112.3356-.1779-.0857s.1311-.11.0841-.2024a.5353.5353,0,0,0-.25-.2665c-.1475-.0771-.7863-.3495-1.0679-.482-.28-.1319-1.5108-.8025-1.9468-1.0828s-1.5122-1.0208-2.02-1.4349a27.2275,27.2275,0,0,1-1.97-1.8931,21.8763,21.8763,0,0,1-1.3645-1.77c-.2333-.3572-.8955-1.5577-1.0363-1.8779a2.1138,2.1138,0,0,0-.35-.654c-.1324-.1241-.1709-.1475-.2262-.1557s-.1932-.0236-.1932-.0236-.04-.0938-.11-.3049c-.0552-.1641-.1009-.3257-.1009-.3257"/>
    <path class="ee011d31-6322-4f83-8371-60f4a06c8dc1" d="M48.7664,61.661a1.7494,1.7494,0,0,0,.4761-.1007c.21-.0856.7879-.25,1.021-.312s.5064-.1793.6236-.211a.7191.7191,0,0,1,.2718-.0539c.0718.0152.11.0539.1864.1629a2.4938,2.4938,0,0,0,.2731.4209.6742.6742,0,0,0,.4913.211,2.18,2.18,0,0,0,.6167-.1241c.1781-.0787.5147-.2966.5918-.3367s.1878-.1241.2264-.0842.0938.1091.1477.1243a.3391.3391,0,0,1,.1627.1406c.0318.0539.5147.7714.78,1.09s.647.7411.9119.9976c.265.2581,1.0363.9273,1.34,1.1453.305.2194,1.1936.8112,1.5909,1.0209s.88.4679,1.2709.6321.8015.3269.912.3808a1.0752,1.0752,0,0,1,.2249.1724c.0786.0622.1241.1408.0938.218s-.4443.7245-.6237,1.0529-.5063.8487-.6388,1.0828-.4829.8032-.5849.99-.3672.6152-.3823.6621-.0841.0389-.109,0c-.0234-.0389.0938-.1642.0938-.3185a.79.79,0,0,0-.1794-.461,2.2267,2.2267,0,0,0-.4829-.2736c-.1407-.062-.825-.3891-1.1686-.5685s-1.0363-.5763-1.4888-.8731-1.06-.7009-1.45-1.02-.9425-.7948-1.2846-1.13a15.7967,15.7967,0,0,1-1.2709-1.4351,15.2168,15.2168,0,0,1-1.0679-1.5425c-.2485-.4443-.5065-.9976-.59-1.0914a.9457.9457,0,0,0-.3906-.2953,2.8021,2.8021,0,0,0-.3587-.102c-.0787-.0069-.218-.0069-.2346-.0691a.183.183,0,0,1,0-.102"/>
    <path class="ee011d31-6322-4f83-8371-60f4a06c8dc1" d="M40.8493,44.5474s1.457-.0069,1.8861,0,1.6682.0083,1.8006.0083a2.5861,2.5861,0,0,1,.3739.0621l.1325.0165s.0622.1395.0152.1863a1.2926,1.2926,0,0,0-.1393.2953c-.04.0938-.0084.196-.0635.2112s-.3036.0468-.3036.0468.0387-.1172-.03-.1642a.7939.7939,0,0,0-.3973-.1006c-.15.0068-.89.0787-1.1232.1006-.2345.0236-.8968.11-1.0293.1325a.7647.7647,0,0,1-.3809-.0385,3.7777,3.7777,0,0,1-.5615-.265.5777.5777,0,0,0-.1862-.1174l-.1491-.03.07-.1876a1.0378,1.0378,0,0,1,.0856-.156"/>
    <path class="ee011d31-6322-4f83-8371-60f4a06c8dc1" d="M41.2784,46.613a1.6371,1.6371,0,0,1,.1863-.25,4.5978,4.5978,0,0,1,.5381-.178c.1408-.04.803-.196,1.1-.2649.2952-.0717.8638-.1724,1.1288-.2428a5.6929,5.6929,0,0,1,.5933-.156.5768.5768,0,0,1,.2952.102c.0869.0622.258.1863.3436.2567s.171.1876.1475.2485a.6377.6377,0,0,1-.1089.1724c-.0455.0621-.03.0925-.0455.1642a.9546.9546,0,0,0-.018.1863s-.2318.07-.2718.0786-.1008.0234-.1008.0234.0622-.1642.0152-.1945a.9024.9024,0,0,0-.3891-.1724,3.4376,3.4376,0,0,0-.8279.1876c-.1627.0537-.7781.2179-1.0112.2883a2.0033,2.0033,0,0,1-.6321.1559,1.5242,1.5242,0,0,1-.5147-.1711,2.77,2.77,0,0,1-.2565-.1406c-.0539-.0318-.1711-.0939-.1711-.0939"/>
    <path class="ee011d31-6322-4f83-8371-60f4a06c8dc1" d="M41.909,48.2647a.3142.3142,0,0,1,.0869-.1863,3.0568,3.0568,0,0,1,.3491-.1491c.0938-.047.3822-.1408.6857-.2484.305-.109.8734-.2814,1.1149-.3505.2428-.0717.7643-.2344.8968-.2883a1.1524,1.1524,0,0,1,.4291-.1476,2.11,2.11,0,0,1,.5216.1159c.1407.0552.2884.1159.3118.21a.4631.4631,0,0,1-.0856.3118.5613.5613,0,0,0-.0855.2112.9277.9277,0,0,0-.0165.178.5136.5136,0,0,1-.1876.0951l-.1629.0373a.2541.2541,0,0,0-.0537-.1863.4676.4676,0,0,0-.3975-.1172c-.1324.0385-.64.2428-.8347.3284s-.7479.342-.9356.4209a.8883.8883,0,0,1-.5146.1172,1.9219,1.9219,0,0,1-.505-.1172c-.1477-.07-.3436-.1726-.4126-.1961a1.5846,1.5846,0,0,0-.2041-.0385"/>
    <path class="ee011d31-6322-4f83-8371-60f4a06c8dc1" d="M43.1245,49.6127l.6624-.3188c.2262-.109,1.0831-.4981,1.348-.6237.2649-.1241.694-.3351.7879-.3739a1.0491,1.0491,0,0,1,.3035-.1172,2.4293,2.4293,0,0,1,.498.0786c.1408.03.3368.0538.3823.1394a.5334.5334,0,0,1,.0468.32.9507.9507,0,0,0-.0689.3035c.0069.07.03.2415.03.2415l-.2014.109c-.1021.0552-.2346.1172-.2346.1172a.4392.4392,0,0,0-.1172-.1945.4193.4193,0,0,0-.3739-.0787c-.0843.0262-.592.32-.78.4361-.1863.1174-.6624.4139-.74.4609a.4434.4434,0,0,1-.3823.1324,1.4656,1.4656,0,0,1-.4608-.109,3.5549,3.5549,0,0,1-.4208-.2731c-.0607-.0457-.2953-.109-.2953-.1712s.0152-.0786.0152-.0786"/>
    <path class="ee011d31-6322-4f83-8371-60f4a06c8dc1" d="M44.3484,51.2339s.6706-.443.9589-.6154.9894-.5767,1.2625-.7244a4.2443,4.2443,0,0,1,.6774-.367,6.1684,6.1684,0,0,1,.6707-.0151c.178,0,.3035,0,.3188.0938a.8524.8524,0,0,1-.0236.25c-.0069.0774,0,.2953,0,.2953l-1.348,1.06c-.2179.1711-.7327.6319-.763.64-.0318.007-.2029-.1323-.4139-.211a2.0018,2.0018,0,0,0-.4127-.109,1.8144,1.8144,0,0,1-.35-.1407.9251.9251,0,0,0-.2648-.1022.8518.8518,0,0,0-.2885.0552Z"/>
    <path class="ee011d31-6322-4f83-8371-60f4a06c8dc1" d="M45.9765,52.4026s.3353-.3035.57-.5065c.2331-.2013.9492-.7794,1.1384-.9354.1863-.1544.6622-.5216.7313-.5753a.3513.3513,0,0,1,.2344-.0635c.0856,0,.2953-.0621.3891-.0621s.2566-.007.2733.1172a3.9671,3.9671,0,0,1,.07.46.5183.5183,0,0,0,.03.2565.496.496,0,0,0,.062.0871,1.9943,1.9943,0,0,1-.21.2261c-.1324.1229-.5381.5052-.7175.6776s-.545.5229-.6773.6622c-.1326.1408-.3423.3354-.3423.3354a.7133.7133,0,0,0-.1725-.3036,1.154,1.154,0,0,0-.5768-.1641c-.1711-.007-.389-.1726-.4759-.1946a.2985.2985,0,0,0-.1863.03s-.109.0316-.1408-.047"/>
    <path class="ee011d31-6322-4f83-8371-60f4a06c8dc1" d="M47.6763,53.4l.9191-.9189c.1794-.1793.7795-.7395.92-.8816a1.5225,1.5225,0,0,1,.4124-.3492c.156-.0717.3438-.1642.4278-.1324.0869.03.1491.1476.1891.2719a.5749.5749,0,0,0,.3726.3669,1.2832,1.2832,0,0,0,.4525.0856c.1021-.0083.1559-.0165.1559-.0165s-.2193.2262-.3352.3436-.46.4512-.6637.6388c-.2015.1876-.7231.7092-.8721.85s-.3588.3189-.3588.3189a.38.38,0,0,0-.1089-.2485.6143.6143,0,0,0-.505-.109A.5081.5081,0,0,1,48.3,53.494c-.102-.0856-.1807-.1725-.2344-.1794a.5685.5685,0,0,0-.2112.07.84.84,0,0,1-.1781.0151"/>
    <path class="ee011d31-6322-4f83-8371-60f4a06c8dc1" d="M49.5157,54.2267s.5064-.4761.7562-.7243c.25-.25.7311-.7177.9423-.9274s.592-.57.592-.57a.3511.3511,0,0,0,.2565.1324c.1808.0151.3518.0482.4844.0552s.3587.0082.4276-.0635a.4016.4016,0,0,1,.1642-.0925s-.11.156-.2413.3271c-.1339.171-.5065.694-.7175,1.014s-.6858,1.0114-.7645,1.144-.2567.414-.31.4911c-.0539.0786-.1256.1711-.1256.1711a.654.654,0,0,0-.109-.3643c-.1241-.2193-.1945-.2262-.3035-.2593-.1091-.03-.1477.0166-.3106-.069-.1655-.0855-.25-.25-.3518-.2733-.102-.0219-.0966-.0386-.1794,0a.2157.2157,0,0,1-.21.0084"/>
    <path class="ee011d31-6322-4f83-8371-60f4a06c8dc1" d="M53.2715,52.4108a1.9865,1.9865,0,0,0,.1241.1794c.0621.0773.149.1642.1325.2263s-.2952.6237-.3587.7712c-.0608.1478-.2649.81-.31,1.006a4.982,4.982,0,0,1-.1809.6306,2.2985,2.2985,0,0,0-.131.2883l-.0249.1876a1.0183,1.0183,0,0,1-.171.094L52.18,55.84V55.692c0-.0635-.094-.1794-.1547-.2884a.4844.4844,0,0,1-.0482-.4442c.07-.21.1559-.46.2345-.6319s.1326-.3575.2567-.6458a4.3723,4.3723,0,0,1,.3739-.7328c.1491-.2179.2181-.3351.2814-.4207a.3438.3438,0,0,1,.1478-.1174"/>
    <path class="ee011d31-6322-4f83-8371-60f4a06c8dc1" d="M45.3777,44.6412s.607-.03,1.0513-.0385A9.2989,9.2989,0,0,1,47.73,44.65a6.7318,6.7318,0,0,0,.9741.0621c.1863-.0082.4677-.0316.92-.0164s1.2625.04,1.8008.1172a8.3753,8.3753,0,0,1,1.4639.3353,4.3684,4.3684,0,0,1,1.4971.7948,1.2426,1.2426,0,0,1,.4124.9438,2.9865,2.9865,0,0,1-.3117,1.0444c-.1243.2415-.4291.7631-.483.8554-.0538.0953-.5229.5313-.7092.741s-.7948.8652-1.0362,1.1548c-.2415.2871-.4278.5189-.5077.599a1.6351,1.6351,0,0,0-.1863.2262H51.486a.3731.3731,0,0,0,.0718-.2567.6748.6748,0,0,0-.2429-.3973c-.109-.0635-.1393-.0786-.2179-.0566-.0774.0249-.1408.0566-.1945.0718-.0553.0151-.101.0233-.101.0233s.2719-.3034.3975-.4358c.1242-.1339.4677-.4458.5836-.5617a.6073.6073,0,0,1,.2732-.1876.8161.8161,0,0,0,.3808.0152.793.793,0,0,0,.3906-.4747.4969.4969,0,0,0-.1863-.4277.7092.7092,0,0,0-.3974-.1491.9255.9255,0,0,0-.3671.0938.5365.5365,0,0,1-.1558.0553s.0083-.087.0234-.2195a.5945.5945,0,0,0-.1256-.3739.5339.5339,0,0,0-.3808-.2179c-.171-.0234-.25.0234-.3118-.0234s-.0151-.1477-.07-.2734a.64.64,0,0,0-.3035-.3669,1.3558,1.3558,0,0,0-.3823-.0993c-.0774,0-.0774-.047-.0774-.1477a.9.9,0,0,0-.1089-.4759,1.0752,1.0752,0,0,0-.367-.2264c-.109-.0234-.1863-.0386-.1863-.0938a2.2219,2.2219,0,0,0,.0691-.3119.4836.4836,0,0,0-.1711-.4125c-.1478-.102-.3119-.1559-.3739-.258a.7363.7363,0,0,0-.2015-.2181,1.3161,1.3161,0,0,0-.258,0c-.0938.0084-.32.0553-.483.0787a1.028,1.028,0,0,1-.3367.0387,1.652,1.652,0,0,0-.3891-.0938c-.1255,0-.4277.0165-.63.0386a3.8269,3.8269,0,0,1-.5767.0385,1.1266,1.1266,0,0,1-.4139-.1158,1.4638,1.4638,0,0,1-.2485-.1242.7114.7114,0,0,1-.1172-.0855.7248.7248,0,0,1,.0234-.1173,1.0175,1.0175,0,0,1,.0552-.1174"/>
    <path class="ee011d31-6322-4f83-8371-60f4a06c8dc1" d="M45.7751,46.0748s.4388-.1847.741-.28c.3186-.102.8871-.2415,1.1438-.2952a1.7354,1.7354,0,0,1,.545-.102.8587.8587,0,0,0,.298.0234l.1393-.0152s.0622.0758.0235.1007c-.04.0234-.0455.0538-.1324.1477a.8121.8121,0,0,1-.2567.2345c-.102.0387-.3366.0925-.6016.1628s-.6858.2028-.8333.2429a.7.7,0,0,1-.4194.0386,3.6911,3.6911,0,0,1-.4057-.0869.1735.1735,0,0,0-.1642.0249.0868.0868,0,0,1-.0856,0v-.109a.5932.5932,0,0,1,.0083-.0871"/>
    <path class="ee011d31-6322-4f83-8371-60f4a06c8dc1" d="M46.538,47.19s.4209-.2264.7714-.3739c.3518-.149,1.061-.4057,1.2087-.4443a.6762.6762,0,0,1,.3973-.04c.0842.0484.156.1021.1326.1725a.7274.7274,0,0,1-.2264.2883c-.0855.0457-.5836.3189-.7727.3975a4.9948,4.9948,0,0,1-.7229.3035,1.0856,1.0856,0,0,1-.3823-.062,1.6772,1.6772,0,0,0-.2346-.07,1.4174,1.4174,0,0,0-.1945,0,.2261.2261,0,0,0,.0166-.0773.9141.9141,0,0,1,.0068-.0938"/>
    <path class="ee011d31-6322-4f83-8371-60f4a06c8dc1" d="M47.326,48.3667s.4677-.2732.6237-.367c.1545-.0924.6622-.334.8788-.4512a1.4552,1.4552,0,0,1,.5782-.2112c.1241.0084.2331.0635.25.1244a.4907.4907,0,0,1-.0552.2965,1.0813,1.0813,0,0,1-.2649.35c-.1932.1835-.3353.2732-.4525.3754a1.2939,1.2939,0,0,1-.3891.2648c-.0938.0151-.2415-.0718-.32-.0869a2.26,2.26,0,0,1-.3657-.1394.4134.4134,0,0,0-.2181-.0621c-.0717.0069-.2732.0539-.2732.0539Z"/>
    <path class="ee011d31-6322-4f83-8371-60f4a06c8dc1" d="M48.5649,49.3794s.28-.2565.4761-.4124c.1933-.156.552-.3975.7231-.523a1.5285,1.5285,0,0,1,.3587-.2263.1782.1782,0,0,1,.1491.0552c.0386.0386.1475.0386.1779.1324.0331.0925,0,.1711.0331.225.03.0566.1076.04.1228.0869a.38.38,0,0,1,0,.1408s-.3891.3035-.53.4359-.3656.35-.4208.3808c-.0538.0331-.2565-.0841-.3822-.1393a2.3868,2.3868,0,0,0-.5216-.1476c-.109-.0084-.1863-.0084-.1863-.0084"/>
    <path class="ee011d31-6322-4f83-8371-60f4a06c8dc1" d="M49.6634,50.1122s.3338-.3119.4993-.46c.1629-.1489.334-.3048.4582-.422s.3905-.3037.3905-.3037.1172.0082.1021.0786.0689.0856.1241.0856a1.1048,1.1048,0,0,1,.2264-.0152.1269.1269,0,0,1,.1007.1242c0,.0855.0069.1628.04.1711.03.0082.1074-.0083.1158.0249.0083.03.0165.0841.0165.0841s-.4374.436-.6236.6084c-.1877.1712-.4762.4747-.5147.523-.0386.0456-.062.0773-.062.0773a.8868.8868,0,0,0-.2194-.3119.761.761,0,0,0-.3657-.2262,1.2856,1.2856,0,0,0-.2883-.0386"/>
    <path class="ee011d31-6322-4f83-8371-60f4a06c8dc1" d="M52.2187,51.2036s.258-.32.4843-.5615l.545-.5851a1.6935,1.6935,0,0,0,.156-.1945,4.1893,4.1893,0,0,0-.18.5077,3.9962,3.9962,0,0,0-.07.5836,2.6827,2.6827,0,0,1-.0855.443,1.8639,1.8639,0,0,0-.0318.3132s-.109.062-.1863.1006-.1725.1009-.1725.1009a.8226.8226,0,0,0-.1076-.3575.6091.6091,0,0,0-.211-.2027.62.62,0,0,0-.2015-.0622Z"/>
    <path class="ee011d31-6322-4f83-8371-60f4a06c8dc1" d="M57.9089,42.0929s.4429-.1629.723-.28c.2829-.1174,1.7123-.61,2.1524-.7259.5381-.1393,1.791-.4428,2.5486-.56a27.0653,27.0653,0,0,1,3.7391-.2814,28.1029,28.1029,0,0,1,3.0162.1712c.6087.0717,1.8322.29,2.3318.4139.4968.1241,1.33.3352,1.7992.4911s1.1992.4043,1.4808.53a4.5278,4.5278,0,0,1,.5061.2111c.0455.0456.054.1173.2015.1863s.3673.1476.3673.1476a.7077.7077,0,0,1-.1949.1172c-.1171.047-.2648.1243-.3821.1726a1.83,1.83,0,0,0-.2332.1159s0-.1642-.062-.2181a4.2085,4.2085,0,0,0-.7949-.3822c-.3462-.13-.8817-.32-1.3963-.4676s-1.4336-.4127-2.0489-.5216-1.2776-.2264-1.878-.2884-1.9783-.1711-2.696-.1642-2.0806.0856-2.7664.171c-.6789.087-1.8006.2581-2.4548.4209-.6553.1656-1.5287.3823-1.8709.4995a7.4019,7.4019,0,0,1-.8886.2952c-.1324.0083-.4125-.03-.5063-.03a1.1109,1.1109,0,0,0-.2415.0151c-.0539.0152-.2028.0939-.2649.0635-.0622-.0331-.1863-.102-.1863-.102"/>
    <path class="ee011d31-6322-4f83-8371-60f4a06c8dc1" d="M79.3,51.0311s-.1629-.1711-.25-.2649c-.0841-.0938-.124-.5216-.2262-.7562a4.5492,4.5492,0,0,0-.6858-.9506,7.442,7.442,0,0,0-1.4474-1.1686,12.8414,12.8414,0,0,0-2.409-1.246,15.6007,15.6007,0,0,0-2.4629-.7879,20.6353,20.6353,0,0,0-3.7875-.5064,21.9182,21.9182,0,0,0-3.53.1793,17.3107,17.3107,0,0,0-3.1182.6941,12.1237,12.1237,0,0,0-1.7055.6624c-.3436.1627-1.17.5754-1.4737.7794-.3035.2015-.7865.5368-1.0831.7244s-.3518.3394-.53.2955a.47.47,0,0,1-.3284-.2955s.2194-.2649.43-.4759.7079-.6306,1.02-.8886.92-.7783,1.021-.8721.3739-.4207.3739-.4207.0855.1861.2428.1393a1.19,1.19,0,0,0,.5533-.4664,2.1245,2.1245,0,0,0,.3422-1.2321c-.0619-.4512-.1241-.78-.2483-.8652a1.3443,1.3443,0,0,0-.4912-.2483,1.3256,1.3256,0,0,1-.2884-.0236.9065.9065,0,0,1-.1877-.1254s.374-.1393.5367-.21c.1657-.07.8969-.3353,1.3882-.4679s1.0127-.2649,1.6363-.3891,1.5428-.2731,2.2754-.3435,1.6833-.1406,2.2448-.1324,1.8615.0786,2.3913.1393c.5312.0635,1.5592.196,2.1758.3366.6139.1393,1.7689.42,2.2753.599s1.1135.367,1.1768.4276a.7091.7091,0,0,0,.2252.1725,1.2359,1.2359,0,0,1,.1876.1022,3.8765,3.8765,0,0,0-.421.5684,2.0578,2.0578,0,0,0,.89,2.5154c1.0277.7629,2.9044,1.9275,3.23,3.6674A7.2038,7.2038,0,0,1,79.3,51.0311"/>
    <path class="ee011d31-6322-4f83-8371-60f4a06c8dc1" d="M79.9952,50.097a3.8094,3.8094,0,0,0-.701-1.6144c-.2773-.4-.4511-.8126-.763-1.3383a6.591,6.591,0,0,0-1.74-1.4392,2.2884,2.2884,0,0,1-.9782-1.49c0-.25-.1256-.6277-.4264-.4581a1.0826,1.0826,0,0,1,.3215-.378,4.8223,4.8223,0,0,1,1.3-.7478c.4912-.1794,1.668-.5,2.151-.6085s1.8474-.334,2.4089-.3823c.5605-.0455,1.5428-.0923,2.0106-.0923.5064,0,1.48.05,2.2048.1241.763.0773,1.8075.2346,2.4933.2732s1.8626.0691,2.3773.0539,1.457-.0539,1.9717-.0622,2.3927-.07,3.0162-.1089,2.3139-.14,2.946-.1712,2.5635-.07,3.1168-.07,2.946.1089,3.553.1407,2.1042.1159,2.6575.1476,1.3479.0621,1.8088.0855c.458.0234,1.8227-.0151,2.1194-.0151.2951,0,1.3327-.0083,1.9015-.03.57-.0249,2.0805-.1407,2.6338-.1876s1.9716-.1945,2.423-.2276a8.8,8.8,0,0,1,1.1-.0691,1.0371,1.0371,0,0,1,.4831.25c.0619.0691.3267.3588.5216.5686a3.0976,3.0976,0,0,1,.4207.523c.0316.0771.1573.2483.1325.31s-.0471.1807-.1173.2194-.3878.1779-.3878.1779a.2576.2576,0,0,0-.1256-.1945.6756.6756,0,0,0-.4372-.0607c-.1395.0455-.5922.24-.857.3573a4.7325,4.7325,0,0,1-.9037.3435c-.2015.0221-.9964.0539-1.5259.0608-.5315.0083-2.0822.0165-2.7515.04s-2.9374.0386-3.4135.0468-2.5566.03-3.219.03-2.5167.0385-3.1172.0318c-.6-.0084-3.2576.04-3.8425.03s-2.245.01-2.6878.0165c-.4444.0082-1.0445.03-1.6212.0691s-1.3881.1254-1.62.1406a2.1786,2.1786,0,0,1-.6555-.062.7041.7041,0,0,0-.1876-.0621c-.0689-.0083-.265-.0386-.265-.0386l-.0456-.1022s.2569-.0468.4666-.0923c.211-.0484.3891-.1422.7643-.22s1.3162-.2567,1.7854-.3353c.4665-.0773,2.579-.4512,3.1873-.53s2.1884-.2567,2.7416-.2953,2.129-.1642,2.6822-.1945,1.7993-.0869,2.1112-.0787,1.3785.03,1.7993.0538.6472.0249.6472.0249l.0785-.2732s-.4442-.0236-.82-.047c-.3723-.0234-1.34-.0386-1.6667-.0386s-1.5121.007-1.9635.03c-.4316.0235-1.0679-.05-1.5826-.0689-.6235-.0235-2.0337-.0084-2.61.0386-.5766.0455-2.2048.2015-2.7194.265s-2.2823.3186-3.0938.4676-2.0722.3961-2.6657.5065c-.5918.109-1.3479.2649-2.0254.3353-.6789.0689-2.0489.0938-2.5484.0854s-1.9717-.04-2.7126-.0316-1.9855.0082-2.7116.0938a9.1485,9.1485,0,0,0-1.7148.3518,3.91,3.91,0,0,0-1.0116.4512c-.2578.1863-.3752.3891-.3669.4595a.3923.3923,0,0,0,.03.1158l.1945.0635s-.1863.1477-.2951.2415a1.0146,1.0146,0,0,0-.2651.498,7.4266,7.4266,0,0,0-.1088.8267.781.781,0,0,0,.0317.4139c.0607.1476.3574.6774.4745.9038.1173.2248.4279.7243.5146.8719s.2486.3587.3657.5381a3.2752,3.2752,0,0,1,.3422.7479,3.5328,3.5328,0,0,1,.0251.5451v1.014a.7068.7068,0,0,1-.0485.334c-.03.0386-.1243.1172-.1325.2041-.007.0843-.0607.28-.0841.3823-.0234.0992-.1022.31-.1022.31s-.124-.25-.1322-.28a2.6287,2.6287,0,0,0,.0316-.53,17.7359,17.7359,0,0,1-.5753-2.19"/>
    <path class="ee011d31-6322-4f83-8371-60f4a06c8dc1" d="M79.7123,45.9273a1.5272,1.5272,0,0,1,.4441-.4126,4.6253,4.6253,0,0,1,1.0211-.476,13.1625,13.1625,0,0,1,1.7772-.3574c.4679-.04,1.7234-.0483,2.1346-.0552.4138-.0083,1.2018.0151,1.4665.0069s.6377,0,.9193,0c.28,0,.818-.0069.9891-.0069a4.7863,4.7863,0,0,1,.5932.0069c.0926.0234.2651.0552.2885.1256a.2294.2294,0,0,1,0,.21.3879.3879,0,0,0-.04.21V45.25s-.0554.03-.1105.0691-.3106.1876-.3106.1876a.4188.4188,0,0,0-.0468-.1559.4754.4754,0,0,0-.3037-.2111c-.1087-.022-.5061-.0454-.6788-.0538-.1708-.007-.5836-.0152-.7478-.0317-.1626-.0152-.2414-.0387-.32-.0387a.306.306,0,0,0-.2018.0552c-.0633.047-.0854.0925-.124.1007a1.0207,1.0207,0,0,1-.149-.0082c-.03,0-.0841.0455.0165.1408a1.0124,1.0124,0,0,0,.56.1945c.1959.0316.4679.0771.6707.1172s.4761.0856.6541.1256a3.71,3.71,0,0,0,.4125.0537c.0633.007.1724.054.1655.1174a.6394.6394,0,0,1-.0481.171.4408.4408,0,0,0-.0152.2029.1207.1207,0,0,1-.0541.1242c-.0481.0316-.2413.1007-.29.1256a.3017.3017,0,0,1-.1309.0152s.0234-.1243,0-.156a.4878.4878,0,0,0-.2413-.1477c-.149-.0468-.5381-.149-.7261-.1876-.1863-.0386-.5061-.1242-.7161-.1627s-.3518-.1023-.4125-.0483c-.0633.055-.0784.102-.117.109s-.1022-.0222-.1408.0151c-.04.04-.094.0869-.0554.1324a.8861.8861,0,0,0,.32.1808c.1408.0469.6.1794.8032.2416s.5533.2027.74.2413.3821.1007.422.2028a.2315.2315,0,0,1-.04.2649.4134.4134,0,0,0-.1022.1863c-.0152.04-.0386.1408-.0386.1408s-.1793.1159-.2166.1324l-.1724.07a.2134.2134,0,0,0,.0069-.2111c-.0537-.1325-.21-.21-.4125-.3119-.2014-.1007-.6155-.2482-.7715-.3035s-.6608-.2566-.7781-.2967a.7662.7662,0,0,0-.3587-.062c-.1105.0234-.1656.0869-.1326.1408.03.0537.116.0786.116.1406s0,.1159-.0316.1326a.2553.2553,0,0,0-.0389.022,4.1451,4.1451,0,0,0,.4458.265c.178.0868.6221.3215.74.3821.1174.0635.483.2346.5685.2967s.265.1641.2334.25-.061.2264-.0775.2719c-.0165.0483.0165.0869-.062.1172s-.367.1092-.367.1092a.481.481,0,0,0-.0234-.1092c-.0151-.0386-.0692-.109-.2251-.2013-.1557-.0938-.709-.4222-.85-.4912a4.7105,4.7105,0,0,1-.5688-.3285,3.6233,3.6233,0,0,0-.3436-.2731c-.0689-.0386-.211-.1077-.3033-.0152-.0745.0758-.1091.2262-.0636.28.0484.0552.1507.149.1507.149s-.094.07-.0788.109a3.18,3.18,0,0,0,.451.35c.1876.1324.6776.4692.8032.5532.1243.0856.3891.25.4761.3285.0854.0773.1088.1477.0455.2166a.4428.4428,0,0,0-.0841.1408s.0066.0938.0066.1324a.3192.3192,0,0,1-.0152.0855.2765.2765,0,0,1-.1421.0552c-.0992.0152-.2469.0234-.2469.0234a.175.175,0,0,1-.0234-.1172c.0069-.07-.0594-.1173-.1656-.21-.1325-.1173-.5064-.3754-.6927-.5077a7.6581,7.6581,0,0,1-.6386-.4664c-.0857-.0938-.243-.32-.3271-.3906-.0871-.07-.2028-.1477-.3037-.1089s-.211.1172-.2262.211-.0316.1629.03.21.1477.102.1477.1323-.1009.0552-.0775.109a5.213,5.213,0,0,0,.4982.4209c.1477.1241.6555.5229.7794.6319a1.87,1.87,0,0,1,.3907.4209.5592.5592,0,0,1-.0234.3422c-.0388.0551-.1477.0771-.25.0938s-.2344.0317-.2344.0317.0481-.1173.0234-.1642a4.0374,4.0374,0,0,0-.4055-.32c-.1629-.1324-.6529-.545-.84-.7008a1.7776,1.7776,0,0,1-.4359-.4761c-.0636-.1324-.1724-.31-.3284-.31a.4763.4763,0,0,0-.4059.1477c-.0936.1241-.0936.258-.022.3117.07.0553.1932.1326.1546.1547l-.1395.0868a2.71,2.71,0,0,1,.3354.25c.2182.1863.5921.4911.7326.6237s.428.4055.483.4512a.43.43,0,0,1,.1243.2883.817.817,0,0,1-.0554.2883c-.03.0553.01.0938-.0689.1326a.7422.7422,0,0,1-.28.04.3433.3433,0,0,1-.1022-.0165s.1325-.1007.1256-.149a1.3153,1.3153,0,0,0-.2816-.3035c-.1091-.094-.6386-.5451-.8348-.7244a2.4257,2.4257,0,0,1-.5368-.6306,2.1512,2.1512,0,0,0-.1642-.53c-.1006-.1408-.3254-.312-.4276-.461a10.1748,10.1748,0,0,1-.5919-.9809,3.0362,3.0362,0,0,1-.3587-.8333,3.0631,3.0631,0,0,0-.0554-.5231c-.0468-.0856-.1556-.218-.21-.218s-.2344-.0234-.2344-.0234"/>
    <path class="ee011d31-6322-4f83-8371-60f4a06c8dc1" d="M80.9678,49.8085s.4277.4913.5368.5838a3.71,3.71,0,0,0,.4055.2732,3.1,3.1,0,0,1,.4059.3891c.07.0855.2414.25.2331.35a1.0909,1.0909,0,0,1-.1477.4361.493.493,0,0,1-.2344.15,1.2473,1.2473,0,0,1-.2166-.018s.1711-.0454.1711-.1158-.0307-.1324-.1559-.2567a2.4558,2.4558,0,0,1-.305-.3505,4.3032,4.3032,0,0,1-.24-.367l-.0939.03-.0937.0082s-.032-.2966-.07-.4593-.0937-.3065-.1158-.3823c-.0333-.1007-.0788-.2719-.0788-.2719"/>
    <path class="ee011d31-6322-4f83-8371-60f4a06c8dc1" d="M80.921,53.3464a2.4906,2.4906,0,0,0,.124-.3588c.0151-.1007.07-.2815.0788-.327l.0234-.1242s.2014.265.2651.3408c.062.0786.273.2428.35.3518s.4293.56.577.7644c.1478.2015.5685.7632.6456.8722.0788.1089.3132.4443.2968.538a1.13,1.13,0,0,1-.0772.3035c-.0471.0939-.0939.1946-.1408.2028s-.2733.0152-.2733.0152a.3366.3366,0,0,0,.062-.1406.5168.5168,0,0,0-.24-.2953,2.921,2.921,0,0,1-.4757-.2967c-.0624-.07-.2539-.5767-.3423-.7561a7.2867,7.2867,0,0,0-.4141-.7395c-.117-.1642-.1945-.3353-.2414-.35s-.0234.0234-.0939.03a.1924.1924,0,0,1-.124-.03"/>
    <path class="ee011d31-6322-4f83-8371-60f4a06c8dc1" d="M81.28,52.1777a1.6437,1.6437,0,0,0,.7795.0938.68.68,0,0,1,.272-.1807.5411.5411,0,0,1,.4758.1021c.1559.1172.9357.8968,1.0514,1.0058.1174.1091.6239.5989.78.7465a3.0448,3.0448,0,0,1,.4524.4995c.0455.102.0689.1876.03.2415a.6179.6179,0,0,0-.117.1642,1.114,1.114,0,0,1-.0788.2718.2374.2374,0,0,1-.2015.1021,1.8042,1.8042,0,0,1-.2179-.0152s.1239-.07.1239-.1477a.2811.2811,0,0,0-.1473-.2428c-.1092-.062-.2249-.1242-.3907-.2111a1.4325,1.4325,0,0,1-.4125-.334c-.1171-.1323-.3891-.4995-.5216-.647s-.4524-.56-.6-.701a1.0736,1.0736,0,0,0-.4831-.3117,1.615,1.615,0,0,0-.2729-.047c-.039,0-.1174.1256-.1023.1559s-.0758-.047-.1546-.1477-.2648-.3973-.2648-.3973"/>
    <path class="ee011d31-6322-4f83-8371-60f4a06c8dc1" d="M82.76,51.819a.5332.5332,0,0,0,.03-.1326c.0083-.0786.0234-.1793.0636-.1711a1.4877,1.4877,0,0,0,.3657.0994c.1322,0,.149-.0221.149-.0221a.3562.3562,0,0,1,.2318-.149,1.5372,1.5372,0,0,1,.273-.0373.6032.6032,0,0,1,.305.0539,6.593,6.593,0,0,1,.8253.6c.1793.1408.905.7092,1.1065.8721s.4372.32.4995.3822.2648.2567.2179.3435a1.5194,1.5194,0,0,0-.1724.28c-.0221.094-.03.2264-.0455.28-.0152.0552-.1256.0787-.1794.07-.0554-.0069-.2113-.0152-.2113-.0152a.3624.3624,0,0,0,.1105-.1241c.022-.0635-.0235-.1338-.1105-.196A2.4718,2.4718,0,0,0,85.83,53.72a4.101,4.101,0,0,1-.6152-.4526c-.2028-.1628-.7326-.6539-.85-.7631a4.3841,4.3841,0,0,0-.5767-.4594,4.01,4.01,0,0,0-.4678-.109c-.1006-.0234-.25-.0565-.25-.0565s-.0675.102-.1.102c-.0633,0-.0551-.0069-.0551-.0069s.0069,0-.0468-.0468a1.3888,1.3888,0,0,1-.1091-.109"/>
    <path class="ee011d31-6322-4f83-8371-60f4a06c8dc1" d="M84.0612,51.0311l.0086-.14a.719.719,0,0,1,.2331-.0385,1.0575,1.0575,0,0,0,.4055-.0483.9648.9648,0,0,0,.25-.1007c.0995-.062.1477-.0774.25-.1408.0992-.062.0771-.1476.1394-.1558a.8249.8249,0,0,1,.3034,0c.0537.0316.4513.3518.6858.4911.2344.1408.9423.5768,1.2074.741s.6621.3808.7946.4981.22.1806.211.29c-.0066.1075-.0936.1863-.1391.2717a2.048,2.048,0,0,0-.0719.2332c-.03.07-.0537.1408-.0537.1408l-.3271.07a.2123.2123,0,0,0,.07-.1629.36.36,0,0,0-.2113-.25,3.0078,3.0078,0,0,0-.4827-.1408,2.9136,2.9136,0,0,1-.5922-.367c-.1642-.1241-.5767-.4429-.7725-.5753a6.9746,6.9746,0,0,0-.6139-.4222,1.9361,1.9361,0,0,0-.5467-.1242c-.1487-.0084-.3267.0083-.3571,0-.032-.0084-.0788.1641-.1408.109a.9653.9653,0,0,0-.1642-.109c-.0771-.0469-.0857-.07-.0857-.07"/>
    <path class="ee011d31-6322-4f83-8371-60f4a06c8dc1" d="M86.0177,49.9563s.21-.0152.2569-.109a1.7176,1.7176,0,0,0,.0455-.3906c.0165-.0938.0082-.1477.0481-.1559s.1408.0621.24.0719a.8423.8423,0,0,1,.39.084c.1642.0869.8652.4526,1.2321.6085s1.0983.5381,1.3245.6237a1.9646,1.9646,0,0,1,.6555.3271.304.304,0,0,1,.0221.3117c-.062.1007-.1092.156-.0858.2263s.0858.1545.0307.1946a1.6163,1.6163,0,0,1-.272.0773.5883.5883,0,0,1-.1794.0317.1487.1487,0,0,0,.062-.1408.3259.3259,0,0,0-.2565-.2414c-.1642-.0387-.35-.047-.5-.0855a1.9471,1.9471,0,0,1-.5064-.2333c-.2262-.1324-.6858-.4056-.9272-.53s-.6857-.3587-.8417-.4594a1.276,1.276,0,0,0-.2882-.1725.4952.4952,0,0,0-.2331-.0151.7467.7467,0,0,1-.2183-.0234"/>
    <path class="ee011d31-6322-4f83-8371-60f4a06c8dc1" d="M87.3274,48.6938a2.1261,2.1261,0,0,0,.0606-.2649c.0248-.1408-.0069-.2112.04-.2264s.1257.0234.2249.0152a.4968.4968,0,0,1,.2733.0249c.07.0385.4138.1711.5849.2318.1712.0634,1.06.3821,1.3565.4926.2951.1089.8335.3035,1.0666.389a1.8417,1.8417,0,0,1,.4758.1863.4247.4247,0,0,1,.156.3436c-.007.1559.0234.2027-.0386.28s-.0785.0938-.0854.1407.0537.1324.0152.1794-.1022.0551-.2417.0772-.21.0387-.21.0387.116-.1241.0069-.225a.881.881,0,0,0-.3973-.2565c-.25-.0939-.6473-.258-.8266-.3284s-.9506-.4209-1.1685-.4982a8.7108,8.7108,0,0,1-.8184-.3352.7784.7784,0,0,1-.2647-.1794c-.0468-.0621-.21-.0855-.21-.0855"/>
    <path class="ee011d31-6322-4f83-8371-60f4a06c8dc1" d="M88.2931,47.4s-.0152-.3809.0386-.3973c.0554-.0154.2113.0316.28.0234a1.4714,1.4714,0,0,1,.4455.04c.178.0469,1.1688.2966,1.5579.3809s.9107.211,1.239.2647c.3271.0553.5451.0553.6153.1726a1.082,1.082,0,0,1,.0554.4994c-.0082.1312.03.4126.0069.4512a1.0392,1.0392,0,0,1-.3036.156c-.1158.0455-.1643.069-.1643.069a.267.267,0,0,0-.0234-.24,1.4557,1.4557,0,0,0-.5835-.2815c-.2028-.0552-.7868-.2484-1.1066-.3422s-.85-.2732-1.028-.32a2.0325,2.0325,0,0,1-.5147-.1793c-.1256-.0772-.2582-.218-.3119-.25a.8046.8046,0,0,0-.2028-.047"/>
    <path class="ee011d31-6322-4f83-8371-60f4a06c8dc1" d="M89.0093,45.9893l-.007-.1476s.1781-.1711.2262-.1711a2.0235,2.0235,0,0,1,.3657-.0082c.1945.0165,1.028.1159,1.3564.1711s1.2005.1709,1.4488.2028c.2512.0316.6334.0069.756.04.211.0538.1794.2414.1958.3725a1.8088,1.8088,0,0,1,.0222.3892.8368.8368,0,0,1-.2566.258,2.835,2.835,0,0,1-.3188.2027c-.0715.0386.0221-.1628-.0551-.2415a.7748.7748,0,0,0-.3669-.1475c-.1946-.0386-.5065-.1105-.6941-.149s-.9037-.1781-1.1922-.2331a3.9646,3.9646,0,0,1-.81-.18c-.1946-.0938-.3188-.25-.4277-.2966a1.0113,1.0113,0,0,0-.2429-.0621"/>
    <path class="ee011d31-6322-4f83-8371-60f4a06c8dc1" d="M89.579,44.9614a1.2759,1.2759,0,0,1-.0538-.1958.3256.3256,0,0,1,.0152-.0774,3.0062,3.0062,0,0,0,.5368-.0234c.2179-.04.8652-.1394,1.2777-.2029.4124-.062,1.1922-.2015,1.45-.25a1.8744,1.8744,0,0,1,.6776-.0537.3516.3516,0,0,1,.2028.2649c.0164.109.1022.3505.1325.4512s.11.258.094.3049a1.375,1.375,0,0,1-.2417.2967c-.0937.0855-.32.3035-.32.3035a.4744.4744,0,0,0-.0385-.2883.7342.7342,0,0,0-.3891-.2968,6.5669,6.5669,0,0,0-1.17-.1c-.2565.0067-.8869.0151-1.1836.0067a2.0819,2.0819,0,0,1-.6941-.1172.74.74,0,0,0-.1395-.0538.1581.1581,0,0,0-.1559.0317"/>
    <path class="ee011d31-6322-4f83-8371-60f4a06c8dc1" d="M93.7875,45.8032s.3036-.3284.3821-.4209.1547-.2112.2084-.2263a2.2179,2.2179,0,0,0,.3821-.0317,14.9582,14.9582,0,0,1,1.4973-.0552c.2812-.007,2.22-.007,2.6406-.007.4224,0,3.164-.0385,3.618-.0318.4511.0084,2.4379,0,2.9444-.0151s2.9542,0,3.5391-.0235c.5836-.022,3.63-.0385,4.138-.0552.5064-.0152,2.8589-.0537,3.2882-.062.4276-.0069,1.2776-.0221,1.5424-.0372a4.9183,4.9183,0,0,1,.6087-.0332c.1.0152.117.1172.1473.1807.03.0609.1794.5368.25.7465a3.1541,3.1541,0,0,1,.1325.6236c.0066.1326.0537.2968.0234.3285a2.309,2.309,0,0,1-.3669.21c-.0541.0153-.1244.03-.1244.03a.1988.1988,0,0,0,.0152-.1711.5447.5447,0,0,0-.3037-.2084.9445.9445,0,0,0-.451.0925,10.8022,10.8022,0,0,1-1.1316.32,4.4022,4.4022,0,0,1-1.0511.1325c-.5688.0152-1.8863.007-2.4465-.0151-.5615-.0249-2.23-.0717-3.0162-.1105s-2.7347-.1393-3.4149-.1724c-.6776-.03-2.7666-.1545-3.2632-.1863-.4995-.03-2.9377-.178-3.4455-.2179s-3.0548-.1946-3.4673-.2333c-.4141-.04-1.301-.1021-1.5744-.1172a5.6128,5.6128,0,0,1-.7946-.0856c-.1408-.0386-.1408-.0938-.25-.1172a1.87,1.87,0,0,0-.2565-.03"/>
    <path class="ee011d31-6322-4f83-8371-60f4a06c8dc1" d="M92.75,47.7431s.36-.2195.5146-.3436.3354-.24.3753-.3505a.575.575,0,0,0,.0385-.1711s1.0983.0318,1.3483.0552c.2482.0221,1.457.1007,1.7771.1241s2.2586.1629,2.8672.2015,3.3348.2263,3.88.258c.5466.0318,2.7211.1642,3.2579.196s2.6186.1324,3.2974.1627,3.0466.094,3.4525.1022c.4042.007,1.7287.0221,1.9635.007.2331-.0152.5212-.0388.6772-.0388s.334.0153.3422.1794a5.3308,5.3308,0,0,1-.0923,1.0749,2.095,2.095,0,0,1-.3435.7009,1.8593,1.8593,0,0,1-.2955.196s.0689-.1477.0234-.2345a.4466.4466,0,0,0-.3267-.203c-.1174.0069-.8114.1794-1.1537.2181a11.4055,11.4055,0,0,1-1.3413.0938c-.4276-.0069-1.4184-.047-1.9176-.0855-.4969-.0386-1.8546-.1408-2.5319-.21-.6775-.07-2.5253-.2747-3.3818-.3739-.8583-.1022-2.5886-.32-3.1943-.3975-.6087-.0786-2.5886-.3436-3.1185-.4207-.53-.0788-1.9483-.2651-2.3373-.3284s-1.6143-.2415-1.9635-.2885c-.3518-.0455-.57-.0938-.7257-.0938s-.273-.0152-.4748,0a2.3879,2.3879,0,0,1-.2647.0151,1.9336,1.9336,0,0,1-.211-.0151.4092.4092,0,0,1-.1408-.03"/>
    <path class="ee011d31-6322-4f83-8371-60f4a06c8dc1" d="M91.8158,49.5037a4.8948,4.8948,0,0,0,.4593-.1711c.1642-.0786.4293-.1477.5064-.28.0788-.1325.094-.1642.0857-.25a.9081.9081,0,0,0-.03-.1641s.5143.0316.7158.047c.2031.0164,1.1771.1641,1.4808.2027s1.7923.2719,2.1978.3284c.4056.0538,3.1571.4359,3.6939.5063s2.8919.374,3.3278.4209,3.0854.3435,3.4992.3808,1.9015.1794,2.4145.2179c.5147.04,1.6147.1023,2.0891.1092a6.5007,6.5007,0,0,1,.9423.0316c.1256.04.22.1242.1962.2112s-.1243.8334-.1711.9811a2.7591,2.7591,0,0,1-.1962.5381.7628.7628,0,0,1-.2413.2814,1.7143,1.7143,0,0,1-.1629.0773s.0857-.1642.0385-.258a.593.593,0,0,0-.32-.2649,7.268,7.268,0,0,0-.7481.102c-.2565.0386-.731.0938-1.0528.1172-.3185.0221-.7227.0539-.9271.0457-.2015-.0084-.5836-.0457-.9189-.0925-.3354-.0483-1.5659-.2181-2.0034-.29-.4359-.0689-1.8695-.3187-2.4686-.4277-.6014-.1091-2.729-.538-3.1415-.632-.4128-.0923-1.9954-.4359-2.3927-.53-.3973-.0923-2.1277-.498-2.525-.5987s-1.5025-.3588-1.8006-.4292c-.2954-.07-.9024-.2179-1.0666-.25a1.2449,1.2449,0,0,0-.4913-.04c-.1408.04-.4289.1255-.5213.1573a.3611.3611,0,0,1-.25.0234.4265.4265,0,0,1-.2179-.1021"/>
    <path class="ee011d31-6322-4f83-8371-60f4a06c8dc1" d="M90.4745,51.0076a3.5355,3.5355,0,0,0,.421-.0456c.1323-.0316.4676-.102.6166-.1475.1477-.0483.2015-.0719.218-.149s-.0165-.2885.0082-.3739c.0221-.0856.061-.1878.061-.1878s.32.07.4524.0786a7.8305,7.8305,0,0,1,.7712.1477c.1879.0469,2.3225.5837,2.6575.6707.3353.0854,2.7748.6774,3.1942.7643.4224.0842,2.4079.5216,2.8534.6141s3.397.6388,3.8883.7174,2.1732.3423,2.5718.3822.9743.1007,1.0917.1325.2249.0773.2015.2179a5.1537,5.1537,0,0,1-.6928,1.482,2.5566,2.5566,0,0,1-.3821.4042c-.1092.07-.1477.0925-.1477.0925a.3838.3838,0,0,0,.07-.2331.42.42,0,0,0-.305-.2416c-.1405-.022-.4441-.0069-.7478-.0069a15.9728,15.9728,0,0,1-1.9717-.1572c-.7781-.1159-1.9717-.31-2.7732-.4981-.8032-.1878-1.95-.4595-2.768-.694-.8167-.2333-2.1649-.6154-3.0162-.9025-.8483-.29-1.9384-.647-2.4145-.8195s-1.8711-.6624-2.0891-.7479a1.7926,1.7926,0,0,0-.53-.1324c-.1629-.0152-.3657.0234-.5381,0a3.1767,3.1767,0,0,1-.4745-.1091c-.094-.03-.1629-.0538-.2031-.1255a.199.199,0,0,1-.0234-.1325"/>
    <path class="ee011d31-6322-4f83-8371-60f4a06c8dc1" d="M88.8533,52.3792s.5229-.1242.788-.2264a1.8875,1.8875,0,0,1,.7643-.1863,5.8771,5.8771,0,0,1,1.09.3189c.3037.1172,1.3868.4993,1.6763.6085s2.7653.9436,3.1626,1.0679,2.55.7643,3.0011.8886,2.525.6553,3.0162.7547c.49.102,1.3.25,1.551.2981.2483.0455.4827.1076.5048.2248a.7478.7478,0,0,1-.0386.3973c-.0455.0938-.1243.3975-.1945.5851a2.0242,2.0242,0,0,1-.2635.5381.7519.7519,0,0,1-.3284.1559.23.23,0,0,0,.1019-.1959.2884.2884,0,0,0-.149-.2332.4757.4757,0,0,0-.28-.1241c-.1326-.0082-.4762.03-.7409.0455s-1.1771.0152-1.5345.0152-.7175.0234-.9822-.0069a6.4772,6.4772,0,0,1-1.0046-.2028c-.4138-.1159-1.4337-.4913-1.8877-.6694-.451-.1806-1.7992-.7794-2.1579-.9423-.3588-.1655-1.6984-.8279-2.1429-1.0527-.4428-.2263-1.0748-.54-1.4184-.7257-.3419-.1863-1.0831-.5921-1.2777-.6859a2.4664,2.4664,0,0,0-.57-.1945,2.6317,2.6317,0,0,1-.4662-.156,2.3541,2.3541,0,0,0-.2417-.0771Z"/>
    <path class="ee011d31-6322-4f83-8371-60f4a06c8dc1" d="M87.1315,53.5561s.5533-.1241.6937-.1781a1.4958,1.4958,0,0,1,.5619-.102,4.9377,4.9377,0,0,1,.7629.35c.2414.1338,1.3093.7023,1.6529.88.3423.1807,1.7524.9038,2.0726,1.06s1.3561.6707,1.7287.8349c.3752.1642,1.6683.7395,2.0353.8873.338.1379.88.3366,1.1919.4456s.7093.2248.8955.28c.188.0538.5147.1408.5381.2249a.503.503,0,0,1-.0386.3436c-.0619.1325-.21.545-.2812.6776a2.2632,2.2632,0,0,1-.2872.4843c-.1018.0923-.149.1406-.211.1558s-.0689.0069-.0689.0069.1157-.1393.1157-.1945a.5126.5126,0,0,0-.1642-.3035.6521.6521,0,0,0-.3188-.1256c-.1019,0-.4207,0-.7241-.03s-.8031-.0938-1.1688-.1711a4.4178,4.4178,0,0,1-.92-.25c-.3037-.1324-.9744-.4829-1.3248-.6857s-1.4653-.8886-1.8158-1.1232c-.3323-.2207-1.9318-1.3632-2.1744-1.5343s-.8184-.592-1.0515-.7713a6.6983,6.6983,0,0,0-.701-.5064c-.1322-.0621-.5229-.2042-.6568-.2581-.1308-.0538-.28-.1006-.3185-.1863a.474.474,0,0,1-.0234-.211"/>
    <path class="ee011d31-6322-4f83-8371-60f4a06c8dc1" d="M85.4328,54.5855a2.3457,2.3457,0,0,0,.4359-.0152,4.1079,4.1079,0,0,1,.4995-.1105.8822.8822,0,0,1,.4043.0386,4.9583,4.9583,0,0,1,.7576.461c.2015.1641,1.0515.8181,1.3163,1.0127s1.5427,1.1,1.7992,1.2776c.2582.1794,1.4184.9508,1.73,1.1384s.8885.5381,1.1685.7009a6.0289,6.0289,0,0,1,.6788.4058c.0858.0868.1946.1709.1092.3669a7.0859,7.0859,0,0,1-.3973.6858,1.7972,1.7972,0,0,1-.3188.3256.682.682,0,0,1-.1257.0787s.1326-.1478.1079-.25a.4967.4967,0,0,0-.24-.334,3.6171,3.6171,0,0,0-.7007-.1724c-.2334-.0538-1.1-.265-1.4335-.3573a2.5248,2.5248,0,0,1-.8267-.3284c-.211-.1559-.7629-.6693-1.028-.9121-.2648-.24-.8279-.7712-1.1464-1.06s-.9743-.9038-1.2074-1.1287-.8735-.7878-.9839-.912c-.1075-.1256-.3726-.3739-.4511-.4525s-.1394-.07-.1862-.149a.2845.2845,0,0,1-.0083-.2249c.0165-.0318.0468-.0855.0468-.0855"/>
    <path class="ee011d31-6322-4f83-8371-60f4a06c8dc1" d="M83.4763,55.8865l.07-.2346a.4676.4676,0,0,0,.0238-.1241,3.04,3.04,0,0,0,.4909-.0152,2.1949,2.1949,0,0,1,.5216-.07.3688.3688,0,0,1,.367.2415,3.3878,3.3878,0,0,0,.5687.6789c.1946.1863,1.1382,1.0582,1.4267,1.3329.2869.2719,1.1989,1.1369,1.52,1.4252.3176.2885.7535.6693.8708.7865s.39.3823.4541.4608a.34.34,0,0,1-.0251.3492,2.568,2.568,0,0,1-.3271.4609,4.056,4.056,0,0,1-.3436.2648s.0871-.171.0637-.25a.6788.6788,0,0,0-.32-.28c-.1256-.0455-.6607-.1876-.8955-.2565a4.3516,4.3516,0,0,1-.8886-.3823c-.1407-.109-.756-.8485-.8968-1.021s-.6775-.872-.8639-1.1149c-.1875-.2413-.6013-.8182-.8278-1.1052-.2249-.29-.5754-.7491-.6691-.8429a1.63,1.63,0,0,0-.1945-.2015,1.1793,1.1793,0,0,1-.1256-.1022"/>
    <path class="ee011d31-6322-4f83-8371-60f4a06c8dc1" d="M81.5679,56.1363s.3422.0455.5368.0455c.1962,0,.3755-.0221.4609-.0069a.3878.3878,0,0,1,.28.1091,1.3731,1.3731,0,0,1,.1708.3821c.0389.1021.6624.9811.7646,1.1219.1006.1393.545.7326.7408.9906s.7245.9341.8791,1.1384c.1559.2014.4692.52.5463.6373.0788.1174.28.4057.3106.4678.033.062-.0458.1476-.0927.21a2.4094,2.4094,0,0,1-.2344.265,1.3416,1.3416,0,0,1-.272.211c-.0386.0153.0152-.109.0237-.1794.0067-.07-.0375-.1586-.1559-.2482a2.3944,2.3944,0,0,0-.577-.2884c-.1794-.07-.5559-.1836-.81-.29a1.2055,1.2055,0,0,1-.4678-.28,7.7448,7.7448,0,0,1-.53-.88c-.149-.265-.5849-1.0844-.694-1.3011a1.509,1.509,0,0,1-.1794-.4843,5.9758,5.9758,0,0,0-.07-.74,1.3318,1.3318,0,0,0-.2721-.4126.8451.8451,0,0,0-.1556-.1021,1.5091,1.5091,0,0,0-.1724-.0621s-.0155-.171-.0155-.21a.4275.4275,0,0,0-.0152-.0938"/>
    <path class="ee011d31-6322-4f83-8371-60f4a06c8dc1" d="M81.4509,58.7s.2179.3669.2951.4911a7.0225,7.0225,0,0,1,.3824.592c.1019.2028.4138.7174.4992.8886a1.0129,1.0129,0,0,1,.1794.5064,1.3767,1.3767,0,0,1-.21.4746c-.0482.0869-.0551.1807-.1655.265a.7275.7275,0,0,1-.28.1172.4308.4308,0,0,0,.1171-.21.5941.5941,0,0,0-.1322-.32,1.0673,1.0673,0,0,0-.3189-.2649c-.1408-.0689-.4223-.218-.4527-.3035a.44.44,0,0,1,.03-.35,1.0507,1.0507,0,0,0,.04-.6306,1.0312,1.0312,0,0,0-.1022-.298.2842.2842,0,0,0-.1006-.1008s.1088-.3973.1322-.498Z"/>
    <path class="ee011d31-6322-4f83-8371-60f4a06c8dc1" d="M73.16,66.991s.5216-.1931.7633-.3035.7092-.31,1.0126-.4525c.32-.1478,1.1536-.6072,1.5124-.8334a12.0125,12.0125,0,0,0,1.1919-.8569c.3755-.3118.9743-.865,1.2157-1.1a11.8739,11.8739,0,0,0,.9825-1.1522c.1711-.25.4675-.7175.4675-.7175l.6542.3284a3.2724,3.2724,0,0,0,.7877.3035,2.1309,2.1309,0,0,0,.5367.0387.4738.4738,0,0,0,.3908-.1793,1.9659,1.9659,0,0,0,.28-.461c.0468-.1158.1174-.2718.1174-.2718s.25.1159.4055.1724l.7547.265a3.2644,3.2644,0,0,1,.6156.21c.1171.0857.149.1477.1408.2332a1.91,1.91,0,0,1-.1711.4512c-.0788.1573-.3739.78-.4913.9907s-.5918.981-.8335,1.3246A17.4935,17.4935,0,0,1,82.19,66.5633a5.74,5.74,0,0,1-.8487.74c-.211.109-.545.1724-.7712.3117l-1.1853.74c-.31.1959-.7561.46-1.0749.6245s-1.1147.5605-1.3561.6779-.57.2565-.7244.3284a.9351.9351,0,0,1-.4058.124.3318.3318,0,0,1-.2648-.1959c-.0538-.1009-.4362-.7563-.577-1.0129-.1391-.2578-.6746-1.17-.7781-1.3327a.67.67,0,0,0-.3987-.3505.8228.8228,0,0,0-.2872-.0855.64.64,0,0,1-.2426-.0234.2145.2145,0,0,1-.1161-.1174"/>
    <path class="ee011d31-6322-4f83-8371-60f4a06c8dc1" d="M71.3741,67.4974s.428-.1089.639-.178.4441-.1558.5918-.1876.2111-.0386.2886.04a.9817.9817,0,0,1,.1875.3339c.0386.1089.4762.8653.6222,1.1231.149.2553.5632.974.6872,1.1989.1256.2262.5684.9436.6624,1.1.0936.1543.2027.3653.28.4913.0775.124.2031.4121.2581.53s.1023.21.062.3106c-.0385.1022-.2964.5618-.35.6792s-.2964.5447-.2964.5447A2.6178,2.6178,0,0,0,74.92,72.96a.6878.6878,0,0,0-.2565-.3653c-.1256-.0858-.367-.1412-.461-.21a.84.84,0,0,1-.295-.3667c-.1174-.2334-.432-1.0788-.5385-1.3478-.117-.2955-.5061-1.278-.6387-1.6051a7.9222,7.9222,0,0,0-.4526-1.0208,1.1632,1.1632,0,0,0-.4511-.3353,1.7911,1.7911,0,0,0-.2331-.0234c-.0333.0066-.1325.0165-.1325.0165Z"/>
    <path class="ee011d31-6322-4f83-8371-60f4a06c8dc1" d="M85.3323,62.1369a.7236.7236,0,0,0,.2868-.0316,2.75,2.75,0,0,0,.4692-.3588,2.6875,2.6875,0,0,0,.3739-.4209.5846.5846,0,0,1,.0772-.1158s.0788.022.0788.0773a7.072,7.072,0,0,1-.2045.7008c-.0455.1339-.208.57-.3185.8032s-.46.9119-.5852,1.1368c-.124.2264-.6924,1.1232-.9272,1.4419-.2331.32-.9423,1.1922-1.16,1.4349s-1.0845,1.0829-1.2942,1.2861c-.2113.2011-1.7372,1.2074-2.0327,1.3867-.298.1794-1.2707.7478-1.4982.8731-.2252.1247-.9107.4517-1.1441.5684a9.0557,9.0557,0,0,1-.99.4366,1.4463,1.4463,0,0,1-.4514-.0152,1.6553,1.6553,0,0,0-.2413-.0171c-.0481,0-.2192.0237-.2192.0237l-.0693-.1161s.5687-.2261.8569-.3653c.2885-.1411,1.5276-.7188,1.8781-.9206S79.3,69.33,79.6737,69.08s1.2707-.9034,1.5978-1.1923,1.2625-1.2,1.4254-1.4029.912-.8955,1.0831-1.0749a6.1042,6.1042,0,0,0,.6871-.7644,15.5006,15.5006,0,0,0,.8262-1.3784c.1-.2346.2167-.4222.1933-.5216-.0221-.102-.03-.1959-.0607-.211-.033-.0152-.2041-.0635-.2041-.0635l.0715-.21.039-.1243"/>
    <path class="ee011d31-6322-4f83-8371-60f4a06c8dc1" d="M69.6827,67.8178a1.0791,1.0791,0,0,0,.3435-.0472,5.2048,5.2048,0,0,1,.6941-.2262c.156-.0153.3891-.0153.4276.0468a3.2778,3.2778,0,0,1,.1642.4125c.07.1958.53,1.365.639,1.6763s.6235,1.5509.7175,1.8075c.0923.2585.3336.8269.3656.9443a2.0063,2.0063,0,0,1,.1171.5216,3.34,3.34,0,0,1-.32.5447c-.1088.1642-.4909.6792-.4909.6792a.6622.6622,0,0,1,.0165-.2651.4131.4131,0,0,0,.055-.2651.9635.9635,0,0,0-.2262-.3825c-.1173-.0936-.3366-.1708-.454-.28a.7173.7173,0,0,1-.2552-.4846c-.087-.3423-.305-1.2609-.3739-1.5339-.0718-.2736-.3518-1.5661-.4207-1.8246a2.8691,2.8691,0,0,0-.2347-.7313,1.1152,1.1152,0,0,0-.3974-.3363,1.145,1.145,0,0,0-.2179-.0073c-.032,0-.087.0073-.087.0073Z"/>
    <path class="ee011d31-6322-4f83-8371-60f4a06c8dc1" d="M68.0628,67.9655s.3033-.03.4207-.0607a2.9692,2.9692,0,0,1,.6238-.1022c.1863,0,.3657.0468.3973.1629s.0772.4523.1006.6014.3587,1.5813.3976,1.791.429,1.7534.4676,1.98.1711.7649.1628.8889a1.1248,1.1248,0,0,1-.0151.273,4.7614,4.7614,0,0,1-.3739.4583c-.1174.1174-.53.64-.53.64s-.0385-.1477.0165-.22c.0538-.0692.1711-.1708.156-.2882a.9367.9367,0,0,0-.2262-.4279c-.1022-.0937-.3271-.2111-.4293-.32a.63.63,0,0,1-.1794-.4516c-.0234-.2579-.1253-1.613-.1559-2.0568s-.1253-1.6836-.1556-1.87a.8573.8573,0,0,0-.1863-.4906.8287.8287,0,0,0-.3284-.2117,1.012,1.012,0,0,0-.156-.0316Z"/>
    <path class="ee011d31-6322-4f83-8371-60f4a06c8dc1" d="M66.3794,67.9819a2.4053,2.4053,0,0,0,.3822-.0164,2.5588,2.5588,0,0,1,.59-.0541c.2194.0086.4542.062.4693.1794s.0234.4978.03.7313.1018,1.4415.1088,1.638c.0082.1945.11,1.5424.1325,1.8694s.07.9589.062,1.0829c-.0069.1259-.0069.2815-.0069.2815s-.3587.3739-.4745.4748c-.1174.1022-.5382.46-.5382.46a1.1679,1.1679,0,0,1,.1243-.2565c.0619-.0778.1172-.2031.07-.28a3.9455,3.9455,0,0,0-.4679-.4926.68.68,0,0,1-.25-.4128c-.0151-.1629.0622-1.2457.1105-1.6987.0455-.4511.1076-1.4732.1393-1.8227a3.106,3.106,0,0,0,.0166-.92.8574.8574,0,0,0-.2733-.3739,1.093,1.093,0,0,0-.2344-.0706Z"/>
    <path class="ee011d31-6322-4f83-8371-60f4a06c8dc1" d="M64.7112,67.88s.2264,0,.3354-.0072a2.4115,2.4115,0,0,1,.389-.0231,1.583,1.583,0,0,1,.4525.0455.2852.2852,0,0,1,.22.3363c-.0165.2169-.0717.99-.0938,1.2074s-.156,1.7923-.156,1.94-.0483.8348-.0635,1.06c-.011.174-.0773.6-.0937.7643s-.1008.4358-.1008.4681a.2907.2907,0,0,1-.0234.0838,3.5486,3.5486,0,0,1-.3891.2816c-.1022.0468-.1022-.0541-.1642-.1161s-.1477-.07-.2967-.1418a1.5072,1.5072,0,0,1-.4746-.4431.65.65,0,0,1-.07-.5684c.0621-.2579.28-1.1468.3518-1.4653.0691-.32.28-1.2074.3491-1.5206a7.8892,7.8892,0,0,0,.1959-.974.5932.5932,0,0,0-.1475-.4207.4613.4613,0,0,0-.1725-.1247c-.0621-.023-.1256-.04-.1256-.04Z"/>
    <path class="ee011d31-6322-4f83-8371-60f4a06c8dc1" d="M63.02,67.6s.2277.0237.3354.0237a2.041,2.041,0,0,1,.5062.0218c.2112.0481.461.087.4913.1807a.5641.5641,0,0,1,.0234.3976c-.0537.2011-.4207,1.7217-.4815,1.98-.0635.2572-.3436,1.464-.39,1.667s-.203.8969-.25,1.0512c-.047.1563-.1394.453-.1559.4846a1.4856,1.4856,0,0,1-.2968.1708c-.0537.0238-.1324.062-.1324.062s.0856-.1239.0553-.2024a.259.259,0,0,0-.2346-.1629c-.1159,0-.2484.0936-.3423.062a.5464.5464,0,0,1-.35-.3515.62.62,0,0,1-.0788-.49c.04-.1959.523-1.3479.6238-1.6216.1021-.2717.5381-1.4032.6471-1.6749a3.379,3.379,0,0,0,.25-.7393.729.729,0,0,0-.1477-.3435.2365.2365,0,0,0-.1655-.0791c-.03.0085-.0691-.0231-.0691-.0231Z"/>
    <path class="ee011d31-6322-4f83-8371-60f4a06c8dc1" d="M61.36,67.1469a1.21,1.21,0,0,0,.3284.0539,1.7325,1.7325,0,0,1,.5216.0484.8882.8882,0,0,1,.4761.3034c.0386.1022-.0552.2955-.1642.5382s-.6154,1.5892-.7328,1.878c-.1172.2869-.6319,1.5813-.7008,1.762-.07.178-.2968.724-.3672.8639-.0689.14-.1241.2795-.1241.2795l-.2883.0871s.0786-.1174.03-.1873c-.0455-.07-.1932-.2182-.28-.2255a.754.754,0,0,0-.3036.0541c-.1242.0468-.2732.0468-.327-.0541a3.9884,3.9884,0,0,1-.2263-.46.3754.3754,0,0,1,.0084-.3191c.0771-.1478.5836-1.0828.6926-1.2556.109-.1708.701-1.1685.8333-1.41s.461-.7946.523-.9192.1007-.2262.0552-.32c-.0483-.094-.0483-.1408-.1021-.1642a.7962.7962,0,0,0-.1477-.0389Z"/>
    <path class="ba98b19e-aaa4-488b-8741-2e7144788cfc" d="M67.37,63.7347H67.239c-1.7055,0-3.6371-.4774-3.6371-3.2244,0-2.7583,1.8985-3.302,3.7006-3.3184,1.72.0151,3.5474.6457,3.5474,3.3184,0,2.416-1.6915,3.2244-3.48,3.2244"/>
    <path class="ee011d31-6322-4f83-8371-60f4a06c8dc1" d="M67.0237,67.6658c-8.1365,0-14.289-5.0155-14.289-10.7085,0-5.6958,6.1525-10.71,14.289-10.71s14.289,5.0142,14.289,10.71c0,5.693-6.1525,10.7085-14.289,10.7085"/>
    <path class="ba98b19e-aaa4-488b-8741-2e7144788cfc" d="M67.0031,50.0928c1.9674.0166,3.2935.814,3.2935,2.9928,0,2.2767-1.3868,3.0093-3.2935,3.0217-1.8214-.0111-3.2963-.6623-3.2963-3.0217,0-2.0932,1.4957-2.9777,3.2963-2.9928"/>
    <path class="ba98b19e-aaa4-488b-8741-2e7144788cfc" d="M72.569,56.4122c1.9595-1.1121,2.3624-2.2366,2.2134-3.5556-.2678-2.3816-3.53-4.0829-7.8484-4.03-5.2.0593-8.3475,2.6657-8.3475,3.3459s1.0306.8541,1.0306,1.2211l.0014,7.1639c.011.4456-.9687.94-.9687,1.4336,0,.5119,3.35,2.9818,8.89,2.95,4.8692-.0276,7.6658-2.0684,7.6922-4.5119a4.4605,4.4605,0,0,0-2.6631-3.9862Z"/>
    <path class="ba98b19e-aaa4-488b-8741-2e7144788cfc" d="M67.0278,46.7442c8.2251,0,13.82,5.1313,13.82,10.2434s-5.5949,10.2449-13.82,10.2449-13.817-5.1314-13.817-10.2449,5.5923-10.2434,13.817-10.2434"/>
    <path class="ee011d31-6322-4f83-8371-60f4a06c8dc1" d="M67.0031,50.0928c1.9674.0166,3.2922.814,3.2922,2.9928,0,2.2767-1.3855,3.0093-3.2922,3.0217-1.8214-.0111-3.2963-.6623-3.2963-3.0217,0-2.0932,1.4957-2.9777,3.2963-2.9928m5.5659,6.3194c1.9595-1.1106,2.3624-2.2366,2.2134-3.5556-.2678-2.3816-3.5309-4.0814-7.85-4.0317-5.1991.0619-8.3462,2.667-8.3462,3.3472s1.0306.8555,1.0306,1.2211l.0014,7.1654c.011.4441-.9687.94-.9687,1.4321,0,.5134,3.35,2.9818,8.89,2.95,4.8692-.0263,7.6658-2.0684,7.6922-4.5119a4.4644,4.4644,0,0,0-2.6631-3.9862ZM67.37,63.7347H67.239c-1.7055,0-3.6371-.4774-3.6371-3.2244,0-2.7583,1.8985-3.302,3.7006-3.3184,1.72.0151,3.5474.6457,3.5474,3.3184,0,2.416-1.6915,3.2244-3.48,3.2244"/>
  </g>
</svg>
