<?xml version="1.0" encoding="utf-8"?>
<!-- Generator: Adobe Illustrator 26.0.1, SVG Export Plug-In . SVG Version: 6.00 Build 0)  -->
<svg version="1.1" id="Ebene_1" xmlns="http://www.w3.org/2000/svg" xmlns:xlink="http://www.w3.org/1999/xlink" x="0px" y="0px"
	 viewBox="0 0 134.4 134.4" style="enable-background:new 0 0 134.4 134.4;" xml:space="preserve">
<style type="text/css">
	.st0{fill:#003C4A;}
	.st1{fill:#FFFFFF;}
</style>
<rect class="st0" width="134.4" height="134.4"/>
<g>
	<path class="st1" d="M82.6,94.2v2.4h12.7c0.3,0,0.5-0.2,0.5-0.4v-1.5c0-0.3-0.2-0.5-0.5-0.4L82.6,94.2z M79.4,102V92h16.4
		c1.5,0,2.8,0.9,2.8,2.3v2.1c0,1.5-1,2.4-1.9,2.4l2.2,3.2h-3.6l-1.9-3.1H82.6v3.1L79.4,102z"/>
	<path class="st1" d="M33.2,102H16.7c-1.5,0-2.8-1.1-2.8-2.6v-4.9c0-1.4,1.2-2.6,2.8-2.6h16.4v2.7H17.3c-0.3,0-0.5,0.2-0.5,0.4
		c0,0,0,0,0,0v3.6c0,0.3,0.2,0.5,0.5,0.5h15.9V102z M55,91.9v7.5c0,1.4-1.2,2.6-2.8,2.6H38.5c-1.5,0-2.8-1.1-2.8-2.6V92h3.3v6.9
		c0,0.3,0.2,0.5,0.5,0.5h11.7c0.3,0,0.5-0.2,0.5-0.5V92L55,91.9z M117.4,96.5v-2.4h-12.6c-0.3,0-0.5,0.2-0.5,0.4v1.9
		C104.3,96.5,112.9,96.5,117.4,96.5 M120.5,102h-3.1v-3.1h-13v3.1h-3.1l0-7.5c0-1.4,1.2-2.6,2.8-2.6h16.4c0,0,0,0,0,0L120.5,102z
		 M60.7,96.5h12.8c0.3,0,0.5-0.2,0.5-0.4v-1.5c0-0.3-0.2-0.5-0.5-0.4H60.7V96.5z M74.1,92c2,0,2.8,0.9,2.8,2.3v2.1
		c0,1.4-0.6,2.6-2.8,2.6H60.7v3.1h-3.1V92H74.1z"/>
	<path class="st1" d="M85.4,42.3l-10.1,5l6.2,2.4c1.3,0.5,2.8,1.1,3.3,2.6c0.6,1.5-0.3,2.9-1,4.1l-3.4,5.3c-4,6.3-8,12.5-12,18.8
		v-5.8c1.5-4.8,3-9.7,4.5-14.5c0.4-1.4,0.8-2.8,1.2-4.1c0.2-0.8,0.1-1.3-0.7-1.7l-6.2-3l-6.1,3c-0.8,0.4-1,0.9-0.7,1.7
		c0.4,1.4,0.8,2.8,1.2,4.1c1.4,4.8,2.9,9.7,4.5,14.5v5.8c-4-6.2-8-12.5-12-18.7l-3.4-5.3c-0.7-1.2-1.6-2.5-1-4.1
		c0.6-1.5,2.1-2.1,3.3-2.6l6.2-2.4l-10.1-5l3.2,5.3l-5.2,2c-3.7-5.7-7.3-11.4-10.9-17.2c10.4,3.7,20.8,7.4,31.2,11
		c10.4-3.6,20.8-7.3,31.2-11c-3.6,5.7-7.3,11.4-10.9,17.2l-5.2-2L85.4,42.3"/>
</g>
</svg>
