<svg xmlns="http://www.w3.org/2000/svg" viewBox="0 0 70 84" width="70" height="84">
  <path d="M 35.0 79.5 L 31.0 77.5 L 21.5 68.0 L 12.5 53.0 L 8.5 42.0 L 4.5 25.0 L 3.5 9.0 L 6.0 7.5 L 25.0 3.5 L 44.0 3.5 L 50.0 5.5 L 60.0 6.5 L 65.5 9.0 L 63.5 31.0 L 56.5 53.0 L 47.5 68.0 L 35.0 79.5 Z M 51.5 47.0 L 56.5 34.0 L 56.5 29.0 L 58.5 22.0 L 58.5 14.0 L 57.0 12.5 L 48.0 10.5 L 21.0 10.5 L 12.0 12.5 L 10.5 14.0 L 10.5 20.0 L 12.0 21.5 L 44.0 21.5 L 46.0 22.5 L 49.5 27.0 L 48.5 30.0 L 45.0 33.5 L 39.0 34.5 L 37.5 36.0 L 49.0 47.5 L 51.5 47.0 Z M 35.5 71.0 L 43.5 63.0 L 45.5 59.0 L 48.5 57.0 L 24.5 33.0 L 35.0 32.5 L 38.0 31.5 L 40.5 28.0 L 39.0 25.5 L 32.0 23.5 L 12.0 23.5 L 10.5 25.0 L 18.5 51.0 L 25.5 63.0 L 34.0 71.5 L 35.5 71.0 Z" fill="#000" fill-rule="evenodd"/>
</svg>