<?xml version="1.0" encoding="UTF-8" standalone="no"?>
<!DOCTYPE svg PUBLIC "-//W3C//DTD SVG 1.1//EN" "http://www.w3.org/Graphics/SVG/1.1/DTD/svg11.dtd">
<svg width="100%" height="100%" viewBox="0 0 135 135" version="1.1" xmlns="http://www.w3.org/2000/svg" xmlns:xlink="http://www.w3.org/1999/xlink" xml:space="preserve" xmlns:serif="http://www.serif.com/" style="fill-rule:evenodd;clip-rule:evenodd;stroke-linejoin:round;stroke-miterlimit:2;">
    <rect x="0" y="0" width="134.4" height="134.4" style="fill:rgb(0,44,95);"/>
    <g transform="matrix(0.224975,0,0,0.224975,-22.852,5.6134)">
        <path d="M220.06,352.9L203.219,352.9L203.219,379.858L172.652,379.858L172.652,352.9L155.804,352.9L155.804,423.657L172.652,423.657L172.652,395.206L203.219,395.206L203.219,423.657L220.06,423.657L220.06,352.9Z" style="fill:white;fill-rule:nonzero;"/>
        <path d="M301.694,352.9L281.808,352.9L264.179,380.919L246.575,352.9L226.699,352.9L255.775,399.156L255.775,423.657L272.607,423.657L272.607,399.156L301.694,352.9Z" style="fill:white;fill-rule:nonzero;"/>
        <g>
            <path d="M355.879,352.9L355.879,404.772C355.879,406.742 354.388,408.333 352.291,408.333L325.293,408.333L325.293,352.9L308.451,352.9L308.451,423.658L358.223,423.658C362.658,423.658 366.218,422.344 368.816,419.764C371.393,417.169 372.696,413.615 372.696,409.204L372.696,352.9L355.879,352.9Z" style="fill:white;fill-rule:nonzero;"/>
            <path d="M438.095,352.9L388.312,352.9L388.312,423.658L405.147,423.658L405.147,368.226L432.168,368.226C434.335,368.226 435.736,369.922 435.736,371.761L435.736,423.657L452.557,423.657L452.557,367.368C452.557,362.938 451.245,359.388 448.675,356.806C446.063,354.202 442.525,352.9 438.095,352.9" style="fill:white;fill-rule:nonzero;"/>
            <path d="M517.953,352.9L468.174,352.9L468.174,423.661L517.953,423.661C522.373,423.661 525.921,422.348 528.512,419.766C531.102,417.169 532.409,413.617 532.409,409.202L532.409,367.369C532.409,362.939 531.101,359.391 528.512,356.795C525.914,354.207 522.359,352.9 517.953,352.9M515.585,371.877L515.585,404.676C515.585,406.584 514.18,408.329 511.983,408.329L484.991,408.329L484.991,368.225L511.878,368.225C514.09,368.226 515.585,369.763 515.585,371.877" style="fill:white;fill-rule:nonzero;"/>
            <path d="M561.76,352.9C557.343,352.9 553.773,354.208 551.204,356.807C548.601,359.401 547.304,362.949 547.304,367.369L547.304,423.661L564.108,423.661L564.108,401.773L594.698,401.773L594.698,423.661L611.519,423.661L611.519,352.9L561.76,352.9ZM594.697,368.226L594.697,386.45L564.107,386.45L564.107,371.819C564.107,370.072 565.459,368.226 567.699,368.226L594.697,368.226Z" style="fill:white;fill-rule:nonzero;"/>
            <clipPath id="_clip1">
                <rect x="155.804" y="123.834" width="488.943" height="299.827"/>
            </clipPath>
            <g clip-path="url(#_clip1)">
                <rect x="627.913" y="352.903" width="16.841" height="70.758" style="fill:white;"/>
            </g>
            <path d="M402.974,299.142C497.517,299.142 574.152,259.896 574.152,211.474C574.152,163.077 497.517,123.836 402.974,123.836C308.435,123.836 231.799,163.077 231.799,211.474C231.799,259.896 308.435,299.142 402.974,299.142M435.191,256.127C432.34,262.756 427.425,276.898 416.132,282.514C412.73,284.201 408.502,285.033 404.715,285.139C403.862,285.16 403.259,285.139 403.007,285.139C371.403,285.139 342.004,280.755 317.392,273.26C317.184,273.201 316.621,272.971 316.44,272.908C314.174,272.155 313.014,271.095 313.014,269.81C313.014,268.662 313.599,267.82 314.419,267.023C314.758,266.669 315.282,266.231 315.964,265.643C321.661,260.906 338.772,248.49 371.019,236.161C382.335,231.837 396.473,226.452 411.296,223.33C419.984,221.497 452.211,216.569 435.191,256.127M521.679,167.775C522.286,166.709 523.094,165.826 524.56,165.733C525.369,165.674 526.47,165.872 528.124,166.902C548.229,179.273 560.143,194.718 560.143,211.45C560.143,241.686 521.279,267.653 465.711,279.024C462.14,279.722 459.774,279.704 458.96,278.801C458.403,278.239 458.256,277.276 458.96,276.09C459.31,275.473 459.711,274.914 460.441,274.027C490.711,238.35 513.755,185.74 520.308,170.548C520.807,169.493 521.295,168.462 521.679,167.775M371.262,166.653C374.119,160.051 379.035,145.91 390.323,140.288C393.745,138.59 397.958,137.777 401.745,137.665C402.591,137.635 403.197,137.665 403.44,137.665C435.044,137.665 464.445,142.04 489.088,149.561C489.271,149.612 489.843,149.835 490.022,149.901C492.293,150.661 493.461,151.701 493.461,153.004C493.461,154.124 492.855,154.977 492.047,155.776C491.699,156.125 491.181,156.576 490.486,157.152C484.801,161.909 467.688,174.288 435.443,186.63C424.121,190.958 409.98,196.335 395.179,199.471C386.465,201.311 354.244,206.217 371.262,166.653M340.221,143.906C343.799,143.216 346.147,143.219 346.996,144.127C347.496,144.7 347.643,145.642 346.988,146.823C346.599,147.456 346.202,148.019 345.491,148.871C315.222,184.554 292.177,237.183 285.618,252.382C285.132,253.425 284.637,254.466 284.233,255.146C283.64,256.213 282.824,257.105 281.372,257.195C280.563,257.243 279.469,257.053 277.791,256.032C257.707,243.651 245.768,228.21 245.768,211.468C245.769,181.232 284.638,155.249 340.221,143.906" style="fill:white;fill-rule:nonzero;"/>
        </g>
    </g>
</svg>
