<?xml version="1.0" encoding="utf-8"?>
<!-- Generator: Adobe Illustrator 26.0.1, SVG Export Plug-In . SVG Version: 6.00 Build 0)  -->
<svg version="1.1" id="Ebene_1" xmlns="http://www.w3.org/2000/svg" xmlns:xlink="http://www.w3.org/1999/xlink" x="0px" y="0px"
	 viewBox="0 0 134.4 134.4" style="enable-background:new 0 0 134.4 134.4;" xml:space="preserve">
<style type="text/css">
	.st0{fill:#DF7D05;}
	.st1{fill:#FFFFFF;}
</style>
<rect class="st0" width="134.4" height="134.4"/>
<g id="SEAT_LOGO_VECTOR_FLAT_00000157987068673638311830000005475450184809587886_">
	<path class="st1" d="M55.8,21.7c12.6-0.4,25.2,0,37.8,0.8c1.3,0.1,2.7,0.1,4,0.4c0.7,0.2,1.5,0.4,1.9,1.1c0.4,0.7,0.4,1.5,0.5,2.3
		c0.3,3.8,0.4,7.6,0.7,11.4c-0.5,0.1-1.1,0-1.6,0c-9.7-0.5-19.4-0.9-29.2-0.9c-5,0-10.1,0-15.1,0.2c-1.2,0.2-2.6,0.6-3.3,1.7
		c3.8,0.7,7.6,1.4,11.4,2.1c12.6,2.4,25.3,4.7,37.9,7c0,2.4,0,4.8,0,7.2c-7.1-1.2-14.2-2.4-21.3-3.7c-15.3-2.6-30.5-5.3-45.8-7.9
		c0-2.7,0.1-5.3,0.2-8c0.1-2.1,0-4.2,0.5-6.3c0.3-1.5,0.9-2.9,2-4c1.9-1.9,4.7-2.4,7.2-2.7C47.7,22,51.8,21.9,55.8,21.7L55.8,21.7z
		 M33.6,46.8c21.9,4,43.7,8.1,65.6,12.2c0.5,0.1,1,0.1,1.4,0.3l0.1,0.1c-0.1,3.6-0.2,7.2-0.3,10.8c-0.1,2.2-0.3,4.5-1.5,6.5
		c-1.2,2-3.5,3.1-5.7,3.6c-3.3,0.6-6.7,0.7-10.1,0.8c-14.5,0.7-28.9,0.3-43.4-0.7c-1.2-0.1-2.3-0.1-3.4-0.4c-0.6-0.2-1.2-0.5-1.5-1
		c-0.4-0.7-0.4-1.5-0.5-2.3c-0.3-4.2-0.5-8.4-0.7-12.6c7.4,0.5,14.9,0.7,22.4,0.9c7.2,0.1,14.4,0.1,21.6,0.2
		c1.6,0.1,3.2-0.2,4.4-1.3c0.2-0.2,0.5-0.4,0.4-0.7c-3.2-0.5-6.5-1.1-9.7-1.6c-13-2.2-26.1-4.4-39.1-6.7
		C33.6,52.2,33.6,49.5,33.6,46.8L33.6,46.8z M73,98.7c1.1-1.2,2.8-1.6,4.4-1.6c6.1,0,12.2,0,18.4,0c0,5.3,0,10.5,0,15.8h-4.2
		c0-1.5,0-3.1,0-4.6c-5.3-0.1-10.5,0-15.8-0.1c-0.1,1.5,0,3.1-0.1,4.6h-4.2c-0.1-3.3,0-6.6,0-9.9C71.6,101.4,71.9,99.8,73,98.7
		 M76.1,101.4c-0.6,1.2-0.3,2.5-0.4,3.8c5.3,0,10.6,0,15.8,0c0-1.7,0-3.3,0-5c-4.4,0-8.8,0-13.2,0C77.5,100.2,76.5,100.5,76.1,101.4
		L76.1,101.4z M100.9,97.1c7.9,0,15.8,0,23.8,0c0.1,1,0,2.1,0,3.1c-3.3,0-6.5,0-9.8,0c0,4.2,0,8.5,0,12.7h-4.2
		c-0.1-3.8,0-7.7,0-11.5c0-0.4,0.1-0.9-0.1-1.2c-0.7,0.1-1.4,0-2.1,0c-2.5,0-5.1,0-7.6,0C100.9,99.2,100.9,98.1,100.9,97.1
		L100.9,97.1z"/>
	<path class="st1" d="M11.6,97.6c1.1-0.6,2.4-0.6,3.6-0.5c6.3,0,12.6,0,18.9,0c0,1,0,2,0,3c-6.4,0.1-12.8,0-19.2,0
		c-0.5,0-1.2,0.2-1.3,0.8c-0.1,0.4-0.1,1,0.3,1.3c0.4,0.3,0.9,0.3,1.3,0.4c5.2,0.4,10.4,0.9,15.7,1.3c1.2,0.1,2.5,0.4,3.4,1.3
		c0.9,0.9,1,2.2,1,3.3c0,1.2-0.3,2.5-1.2,3.3c-0.8,0.7-1.9,1.1-3,1c-6.9,0-13.8,0-20.6,0c0-1-0.1-2,0-3c6.5,0,12.9,0,19.4,0
		c0.4,0,0.9,0,1.3-0.4c0.4-0.5,0.4-1.2,0.2-1.7c-0.3-0.5-0.9-0.6-1.4-0.6c-4.6-0.4-9.2-0.8-13.7-1.2c-1.4-0.1-2.9-0.1-4.2-0.6
		c-0.8-0.3-1.6-1-1.9-1.8c-0.4-0.9-0.2-1.8-0.2-2.8C9.7,99.5,10.4,98.2,11.6,97.6L11.6,97.6z M40.6,97.1c8.1,0,16.1,0,24.2,0
		c0.1,0,0.2,0,0.3,0c0,1,0,2,0,3c-0.2,0.1-0.5,0-0.8,0.1c-6.5,0-13,0-19.5,0c0,1,0,2,0,3.1c4.8,0,9.5,0,14.3,0c1.7,0,3.4-0.1,5.2,0
		c0,1,0,2,0,2.9c-0.4,0.1-0.8,0.1-1.2,0.1c-6.1,0-12.2,0-18.3,0c0,0.9-0.1,1.8,0.4,2.6c0.5,0.8,1.5,0.9,2.3,0.9c5.9,0,11.8,0,17.6,0
		c0,1,0,2,0,3c-2.4,0.1-4.8,0-7.2,0c-4.1,0-8.3,0-12.4,0c-1.5-0.1-3-0.7-3.9-1.9c-0.8-1.1-1-2.4-1-3.7
		C40.6,103.9,40.6,100.5,40.6,97.1z"/>
</g>
</svg>
