<svg id="Ebene_1" data-name="Ebene 1" xmlns="http://www.w3.org/2000/svg" viewBox="0 0 134.45 134.45"><defs><style>.cls-1{fill:#001e50;}.cls-2{fill:#fff;}</style></defs><rect class="cls-1" width="134.45" height="134.45"/><path class="cls-2" d="M67.22,102.47a35.38,35.38,0,0,1-35.1-35.25,35,35,0,0,1,2-11.55l20.55,40c.28.57.57,1,1.28,1s1-.43,1.28-1L66.8,74.36c.14-.29.28-.43.42-.43.29,0,.29.29.43.43l9.7,21.26c.29.57.58,1,1.29,1s1-.43,1.28-1l20.55-39.95a34,34,0,0,1,2,11.55C102.33,86.49,86.49,102.47,67.22,102.47Zm0-44.38c-.28,0-.28-.28-.42-.43L55.81,34a33.58,33.58,0,0,1,22.83,0l-11,23.68C67.51,57.81,67.51,58.09,67.22,58.09ZM55.67,83.78c-.29,0-.29-.29-.43-.43l-18-34.53a36.12,36.12,0,0,1,13-12.42l12.7,27.4c.29.57.57.71,1,.71h6.57c.42,0,.71-.14,1-.71L84.06,36.4a36.15,36.15,0,0,1,13,12.42L79.21,83.35c-.14.28-.29.43-.43.43s-.28-.29-.43-.43L71.5,68.22c-.28-.57-.57-.71-1-.71H63.94c-.43,0-.71.14-1,.71L56.09,83.35C56,83.49,56,83.78,55.67,83.78Zm11.55,23.4a40,40,0,1,0-39.95-40A39.9,39.9,0,0,0,67.22,107.18Z"/></svg>