<svg id="Ebene_1" data-name="Ebene 1" xmlns="http://www.w3.org/2000/svg" viewBox="0 0 134.45 134.45"><defs><style>.cls-1{fill:#1da2d9;}.cls-2{fill:#fff;}</style></defs><rect class="cls-1" width="134.45" height="134.45"/><g id="VW_Nutzfahrzeuge_Logo_Blau" data-name="VW Nutzfahrzeuge Logo Blau"><path class="cls-2" d="M67.06,80.09A26.07,26.07,0,0,1,42.49,45.36L57.74,75c.21.43.42.75.95.75s.74-.32,1-.75l7.1-15.77c.1-.21.21-.32.32-.32s.21.21.31.32L74.57,75c.21.43.43.75,1,.75s.74-.32,1-.75L91.72,45.36a25,25,0,0,1,1.49,8.58A26.42,26.42,0,0,1,67.06,80.09Zm0-32.93c-.22,0-.22-.21-.32-.32L58.59,29.27a24.82,24.82,0,0,1,16.94,0L67.37,46.84C67.27,47,67.27,47.16,67.06,47.16ZM58.48,66.22c-.21,0-.21-.22-.32-.32L44.82,40.28a26.78,26.78,0,0,1,9.64-9.21l9.42,20.32c.21.43.42.53.74.53h4.87c.32,0,.53-.1.74-.53l9.32-20.32a26.75,26.75,0,0,1,9.63,9.21L76,65.9c-.11.21-.21.32-.32.32s-.21-.22-.32-.32L70.23,54.68c-.21-.43-.42-.53-.74-.53H64.62c-.32,0-.53.1-.74.53L58.8,65.9C58.69,66,58.69,66.22,58.48,66.22Zm8.58,17.36A29.65,29.65,0,1,0,37.41,53.94,29.59,29.59,0,0,0,67.06,83.58Z"/><path class="cls-2" d="M25.1,104V97.16h2v9.89H25l-4.2-6.82h-.05v6.82h-2V97.16h2.14L25.06,104Z"/><path class="cls-2" d="M31.08,100v4.22c0,.92.34,1.4,1.2,1.4a2.5,2.5,0,0,0,1.48-.6v-5h2v7H34.14l-.26-.68h0a3.17,3.17,0,0,1-2.18.9c-1.68,0-2.55-1.12-2.55-2.81V100Z"/><path class="cls-2" d="M40.2,98.41V100h2v1.5h-2v3.32a.72.72,0,0,0,.83.8,4.09,4.09,0,0,0,1.13-.21v1.6a6.78,6.78,0,0,1-1.64.22c-1.56,0-2.29-.64-2.29-2v-3.68H37v-1.07l1.28-.43V98.41Z"/><path class="cls-2" d="M49,100v1l-3.38,4.46v0H49v1.49H43.18v-1l3.36-4.45v0H43.4V100Z"/><path class="cls-2" d="M51.09,107.05v-5.51H49.85v-1.07l1.24-.43v-.93a2.11,2.11,0,0,1,2.38-2.32,9.34,9.34,0,0,1,1.26.1v1.62a5.39,5.39,0,0,0-.95-.1c-.52,0-.73.14-.73.78V100H54.8v1.5H53.05v5.51Z"/><path class="cls-2" d="M61.84,105.53c0,.21,0,.26.24.26h.51v1.34a5,5,0,0,1-1,.1,1.35,1.35,0,0,1-1.4-.83h0a3.93,3.93,0,0,1-2.26.87,2.12,2.12,0,0,1-2.37-2.21c0-1.56,1-2.3,3.47-2.3h.94v-.32c0-.87-.77-1-1.19-1a6.12,6.12,0,0,0-2.33.5l-.47-1.49a7.3,7.3,0,0,1,2.9-.63c2,0,3,1,3,2.84ZM59.18,104c-1.3,0-1.79.33-1.79.86s.33.84.93.84a3.06,3.06,0,0,0,1.6-.48V104Z"/><path class="cls-2" d="M68.6,107.05v-4.22c0-.89-.39-1.39-1.25-1.39a2.11,2.11,0,0,0-1.52.67v4.94h-2V96.86h2v3.76h0a3.27,3.27,0,0,1,2.1-.8,2.51,2.51,0,0,1,2.6,2.82v4.41Z"/><path class="cls-2" d="M73.91,100l.28.84h0A2.05,2.05,0,0,1,76,99.82a2.77,2.77,0,0,1,.7.09l-.17,1.64a4.62,4.62,0,0,0-.7-.06,1.86,1.86,0,0,0-1.53.69v4.87h-2v-7Z"/><path class="cls-2" d="M83.19,100v1l-3.38,4.46v0h3.38v1.49H77.41v-1l3.36-4.45v0H77.62V100Z"/><path class="cls-2" d="M86.2,104.11A1.61,1.61,0,0,0,88,105.7a6.42,6.42,0,0,0,2.24-.44l.45,1.42a6.85,6.85,0,0,1-2.84.59,3.73,3.73,0,0,1-.1-7.45c2.27,0,3.28,1.38,3.28,3a9.3,9.3,0,0,1-.1,1.26Zm3-1.22a.78.78,0,0,0,0-.22,1.29,1.29,0,0,0-1.47-1.42,1.56,1.56,0,0,0-1.53,1.64Z"/><path class="cls-2" d="M94.32,100v4.22c0,.92.34,1.4,1.2,1.4a2.5,2.5,0,0,0,1.48-.6v-5h2v7H97.38l-.26-.68h0a3.18,3.18,0,0,1-2.19.9c-1.67,0-2.54-1.12-2.54-2.81V100Z"/><path class="cls-2" d="M107.5,106.6c0,2.36-1.33,3.56-3.63,3.56a5.7,5.7,0,0,1-2.75-.69l.57-1.44a4.59,4.59,0,0,0,2.18.51c1.15,0,1.66-.41,1.66-1.57v-.53h0a3.1,3.1,0,0,1-2,.7c-2,0-3.06-1.6-3.06-3.64s1-3.68,3.06-3.68a3.45,3.45,0,0,1,2.17.86h0L106,100h1.53Zm-2-4.73a2.89,2.89,0,0,0-1.41-.43c-1.17,0-1.66.81-1.66,2.06s.49,2,1.66,2a3,3,0,0,0,1.41-.4Z"/><path class="cls-2" d="M111,104.11a1.61,1.61,0,0,0,1.76,1.59,6.47,6.47,0,0,0,2.24-.44l.45,1.42a6.89,6.89,0,0,1-2.84.59,3.73,3.73,0,0,1-.1-7.45c2.27,0,3.28,1.38,3.28,3a7.73,7.73,0,0,1-.11,1.26Zm3-1.22a.78.78,0,0,0,0-.22,1.29,1.29,0,0,0-1.47-1.42,1.56,1.56,0,0,0-1.53,1.64Z"/></g></svg>